<?xml version="1.0" encoding="utf-8"?>
<!-- Generator: Adobe Illustrator 22.0.0, SVG Export Plug-In . SVG Version: 6.00 Build 0)  -->
<svg version="1.1" class="bear" id="Calque_1" xmlns="http://www.w3.org/2000/svg" xmlns:xlink="http://www.w3.org/1999/xlink" x="0px" y="0px"
	 viewBox="0 0 432 432" style="enable-background:new 0 0 432 432;" xml:space="preserve">
<g>
	<path class="st17" d="M261.1,200c9.8-0.6,37.4-3.5,50.5,46.2c13.1,49.7-15.7,61.4-18.5,63.2c-18.2,9.4-22.6-39.4-22.2-50.7
		C271.3,247.5,261.1,200,261.1,200z"/>
	<path class="st17" d="M194,202.2c-11.1-3.5-34.9-21.8-42.7-44s-37.4-12.9-34,12.8s14.1,48.4,55.7,75.3
		C181.4,232.1,194,202.2,194,202.2z"/>
	<path class="st3" d="M260,196.1c11.4-12.1,18.7-30.3,18.7-50.6c0-20-7.1-38-18.2-50.1c6.5-8,12.8-19.9,1.7-26.2
		C251.5,63,245.5,75,244,83.1c-5.5-2.5-11.5-3.9-17.8-3.9c-5.9,0-11.5,1.2-16.8,3.5c-0.6-7.9-6.7-22.9-18.4-16.3
		c-11.6,6.6-4.2,19.3,2.5,27.3c-12,12.1-19.7,30.8-19.7,51.7c0,20.6,7.4,39,19.1,51.1c-16.5,16.3-27.4,44.1-27.4,75.7
		c0,50.1,27.4,90.8,61.2,90.8c33.8,0,61.2-40.7,61.2-90.8C287.9,240.3,276.8,212.2,260,196.1z"/>
	<g>
		<path class="st17" d="M199.2,96.5c-4.8-5.3-11.2-15-2.7-19.8c8.5-4.8,12.7,7,12.7,12C206.4,90.8,199.2,96.5,199.2,96.5z"/>
		<path class="st17" d="M254,99.1c4.8-5.3,11.2-15,2.7-19.8c-8.5-4.8-12.7,7-12.7,12C246.8,93.4,254,99.1,254,99.1z"/>
	</g>
	<g>
		<g>
			<ellipse class="st0" cx="217" cy="112.1" rx="2.5" ry="4.3"/>
			<ellipse class="st0" cx="236.7" cy="112.1" rx="2.5" ry="4.3"/>
		</g>
		<ellipse class="st0" cx="226.4" cy="159.7" rx="17.3" ry="12.5"/>
		<g>
			<path class="st0" d="M206,190.3c-7,0-13.5-6-15.3-14.5l1.9-0.4c1.8,8.4,8.7,14.2,15.5,12.7l0.4,1.9
				C207.7,190.2,206.8,190.3,206,190.3z"/>
		</g>
	</g>
	<g>
		<path class="st15" d="M252.2,266.4v40.7c0,6.5-5.3,11.8-11.8,11.8h-24.7c-6.5,0-11.8-5.3-11.8-11.8v-40.7
			c0-6.5,5.3-11.8,11.8-11.8h24.7C246.9,254.6,252.2,259.9,252.2,266.4z"/>
		<path class="st8" d="M231.5,259.5c0.8-0.2,1.4-0.9,1.4-1.7l-0.9-4.4c3.9-3.1,8-6.6,11.7-10.2c1.7-1.6,3.3-3.3,4.8-4.9
			c8.7-9.4,13.5-18.7,5.2-23.3c-12.1-6.6-21.8,18.4-25.1,34.7h-2.2c-2.4-14.3-7.2-30.3-15.9-25.1c-8.8,5.2,3.7,20.8,12.9,29
			l-0.8,4.2c0,0.9,0.7,1.7,1.6,1.8v20H204v7.2h20.3v32.1h7.2v-32.1h20.7v-7.2h-20.7V259.5z M247.2,225.6c4.5,2.5,2.6,7.2-1.6,12.3
			l0,0c-0.7,0.8-1.4,1.6-2.2,2.5c-3.5,3.7-7.9,7.3-11.7,10.3c-0.1-0.2-0.2-0.3-0.4-0.4C232.5,241,238.9,221,247.2,225.6z M223.6,251
			c-5.6-4.7-14.3-15-8.7-18.3c5.6-3.4,8.5,8,9.9,17.1C224.3,250,223.8,250.4,223.6,251z"/>
	</g>
	<g>
		<g>

				<ellipse transform="matrix(0.9019 -0.432 0.432 0.9019 -121.3943 114.7992)" class="st53" cx="192" cy="324.6" rx="31.5" ry="44.7"/>
			<g>

					<ellipse transform="matrix(0.8206 -0.5715 0.5715 0.8206 -159.7153 173.9104)" class="st0" cx="197.1" cy="341.3" rx="13" ry="18.2"/>

					<ellipse transform="matrix(5.987455e-02 -0.9982 0.9982 5.987455e-02 -119.0097 490.635)" class="st0" cx="201" cy="308.5" rx="6.2" ry="4.5"/>

					<ellipse transform="matrix(0.8206 -0.5715 0.5715 0.8206 -142.9296 159.5022)" class="st0" cx="182.6" cy="307.4" rx="4.5" ry="6.2"/>

					<ellipse transform="matrix(0.5405 -0.8414 0.8414 0.5405 -190.9696 292.9864)" class="st0" cx="172.7" cy="321.3" rx="4.5" ry="6.2"/>
			</g>
		</g>
		<g>

				<ellipse transform="matrix(0.432 -0.9019 0.9019 0.432 -142.0113 423.7926)" class="st53" cx="265.4" cy="324.6" rx="44.7" ry="31.5"/>
			<g>

					<ellipse transform="matrix(0.5715 -0.8206 0.8206 0.5715 -168.5511 359.8653)" class="st0" cx="260.3" cy="341.3" rx="18.2" ry="13"/>

					<ellipse transform="matrix(0.9982 -5.987455e-02 5.987455e-02 0.9982 -18.0111 15.9105)" class="st0" cx="256.5" cy="308.5" rx="4.5" ry="6.2"/>

					<ellipse transform="matrix(0.5715 -0.8206 0.8206 0.5715 -134.4654 357.2673)" class="st0" cx="274.9" cy="307.4" rx="6.2" ry="4.5"/>

					<ellipse transform="matrix(0.8414 -0.5405 0.5405 0.8414 -128.4916 204.8524)" class="st0" cx="284.7" cy="321.3" rx="6.2" ry="4.5"/>
			</g>
		</g>
	</g>
</g>
</svg>
