<?xml version="1.0" encoding="utf-8"?>
<!-- Generator: Adobe Illustrator 21.1.0, SVG Export Plug-In . SVG Version: 6.00 Build 0)  -->
<svg version="1.1" class="bell" id="Calque_1" xmlns="http://www.w3.org/2000/svg" xmlns:xlink="http://www.w3.org/1999/xlink" x="0px" y="0px"
	 viewBox="0 0 432 432" style="enable-background:new 0 0 432 432;" xml:space="preserve">
<g>
	<path class="st28" d="M129.5,283.9c7.7,1.9,15.1,4.2,22.4,6.9c-0.3,0.1-0.5,0.2-0.8,0.3c-4.8,1-9.5,1.9-14.4,1.7
		c-1.2,0-2-0.2-2.6-1.4c-1.4-2.4-3-4.6-4.5-6.9C129.6,284.4,129.6,284.3,129.5,283.9z"/>
	<path class="st28" d="M111.1,287.7c4.1-1.7,7.9-3.4,11.9-5c1.6,2.6,3.3,5.3,4.9,8c-0.1,0.1-0.1,0.2-0.2,0.3
		C122.3,289.6,116.8,288.3,111.1,287.7z"/>
	<path class="st28" d="M160.4,302.3c-5.2-2.1-10.3-4.3-15.4-6.4c3.8-0.8,7.7-1.6,11.7-2.4C157.9,296.4,159.2,299.4,160.4,302.3z"/>
	<path class="st28" d="M110.3,280.1c1.8,0.4,3.9,0.8,6.3,1.3c-4,2-8.1,3.3-11.9,4.3C106.4,284,108.3,282.1,110.3,280.1z"/>
	<g>
		<path class="st36" d="M122.9,301.3c-38-16.8-49.9,13.4-16.8,29.8C117.9,323,119.1,314.4,122.9,301.3z"/>
		<path class="st36" d="M130.5,304.2c-0.4,1.1-4.8,19.9-19.2,30.2C176,382.6,247.6,340.4,130.5,304.2z"/>
		<path class="st36" d="M291,305.7c-127.8,29.5-62.8,68.2,17.8,21.9C304.4,323.6,297.9,316.4,291,305.7z"/>
		<path class="st36" d="M300.1,303.2c2.3,5.6,9.9,17.2,14.2,21.4C338.7,311.2,349.5,290.6,300.1,303.2z"/>
	</g>
	<g>
		<path class="st27" d="M235.1,247.3c0-2.3-3.7-2.2-3.8,0.1C231.3,248.4,235.1,250,235.1,247.3z"/>
		<path class="st27" d="M254.1,240.6c2.3,0,2.9-3.4,0-3.4C251.5,237.2,251.7,240.6,254.1,240.6z"/>
		<path class="st27" d="M182.1,245.2c-1.2,0-2,0.8-2,2.1c0,1.5,0.9,1.7,2.4,1.8c1,0.1,1.7-0.9,1.7-2
			C184.2,246,183.2,245.2,182.1,245.2z"/>
		<path class="st27" d="M160.9,240.2c-1.3,0-2.1,0.7-2.2,1.9c-0.1,1.1,0.7,2,1.9,2c1.2,0.1,2.2-0.9,2.2-2
			C162.8,241,162,240.2,160.9,240.2z"/>
		<path class="st27" d="M330.6,343c0.1-9.9-14.2-6.7-10,0.9c0.9,1.7,2.6,3.4,4.6,3.5c2.2,0.1,9.7,11.1,12.4,6.3
			C339.7,350,328.7,346.9,330.6,343z"/>
		<path class="st10" d="M326.1,278.6c-36.3-28.4-39.6-51-60.2-64.4c-18.7-12.2-49-8-56.6,16.2c-14-29.9-50.1-36-71.8-2
			c-57.4,89.9-89,65.1-40.8,110.7c1.7-1.5,3.4-3.1,5.1-4.7c-7-6.1-24.8-23.5-18.3-30.3c14-14.6,15.1-12.2,19.3-12.3
			c18.9-0.1,48.4,10.8,63.4,19.5c2.1,1.2,33.9,19.5,34.2,23.2c3.2,40.3-64.4,30.5-94.8,3.6c-1.7,1.6-3.4,3.1-5.2,4.7
			c39.3,36.9,104,28.9,108.2,3.8c13.2,22.8,75.1,13.6,109.9-10.5c-1.8-1.7-3.5-3.2-5.3-4.8c-45.6,27.1-86.4,23.3-95.1,17.4
			c-44.8-30.4,199.9-91.4,100.3-20.9c-0.3,0.2-0.5,0.4-0.9,0.7c1.7,1.7,3.4,3.2,5,4.9C364.6,303.6,342.8,291.7,326.1,278.6z
			 M288.9,251.1c1.1,1.4,2.2,2.9,3.3,4.3C289.9,255.9,288.4,254,288.9,251.1z M110.3,280.1c1.8,0.4,3.9,0.8,6.3,1.3
			c-4,2-8.1,3.3-11.9,4.3C106.4,284,108.3,282.1,110.3,280.1z M127.7,290.9c-5.4-1.3-10.9-2.5-16.6-3.2c4.1-1.7,7.9-3.4,11.9-5
			c1.6,2.6,3.3,5.3,4.9,8C127.8,290.7,127.7,290.8,127.7,290.9z M129.5,283.9c7.7,1.9,15.1,4.2,22.4,6.9c-0.3,0.1-0.5,0.2-0.8,0.3
			C141.7,293.1,131.9,295.6,129.5,283.9z M145,296c3.8-0.8,7.7-1.6,11.7-2.4c1.2,2.9,2.4,5.8,3.7,8.8
			C155.2,300.2,150.1,298.1,145,296z M163,295.4c0,0,0-0.1,0.1-0.2c3.6,1.2,15.5,7.4,18.4,9.6c-0.2,0.1-0.4,0.3-0.7,0.4
			C170,308.6,167.3,307.4,163,295.4z M174,309.8c7.4-1.2,4.4-0.6,11.7-2.6c0.6,1.1,4.1,12.6,4.1,12.7
			C184.5,316.6,179.4,313.2,174,309.8z M200.2,326.7c-0.1,0-0.2,0-0.3,0.1c-3.8-4.1-6-8.9-7.5-14.5
			C202.3,318.7,200.2,320.7,200.2,326.7z M203,290.4c-23.5-40.1-39-7.7-42.1-23.2c-0.6-3,3.4-4.9,5.2-2c-4.4-1.7-5.5,2.1-3.1,3.7
			c5.3,3.6,8.7-7.2,1.5-7.6c-6.2-0.4-9.4,7.2-1,12.5c-15.4,7.5-19.5-4.9-12.8-5c-2.8,2.4-0.9,5.4,1.5,5.2c6.6-0.4,3.5-10.4-3.3-8.3
			c-4.6,1.4-6.2,6.4-3.3,10.2c7,9.2,24.9-2,29.5-2.9c-10,12.8,6.5,21.2,11,13.6c4.1-7-6-11.7-7.2-6.4c-0.3,1.3,0.3,4.3,4.8,4.1
			c-0.8,3.1-4.4,2.8-6.8,0.5c-8.9-8.4,12.2-21.2,22.7,7c0,0.1,0,0.2,0,0.4c-9.8-7.1-13.3,3.7-8.3,5.5c3.2,1.1,6.3-4,1.1-5.1
			c2.6-2.4,10,3,8.9,11.1c-0.3,2.5-0.6,7.7-0.8,10.1c-4.1-3.1-25-28-86.8-37.2c16.4-27.3,21.6-3.2,13.7-4.2
			c8.4-5.7-7.1-10.1-4.5-1.1c0.5,1.9,1.8,3.2,3.7,3.6c7.8,1.9,11.6-12.8-0.1-13.8c3-4,1.7-2.3,4.8-6.4c9.4,15.4,23,10.4,23.2-1.5
			c0.1-5.7-12.1-5.8-10.9,1.9c0.9,5.7,9.4,1.6,5.1-3.2c2.1-0.3,3.4,0.8,3.3,2.8c-0.6,15.5-22.8,2.3-18-3.8c3-3.8,4.9-7.4,5.8-7.8
			c-2.2,13.2,20.5-4.8,30.4-14c0.1,0,0.1,0.1,0.2,0.1c-13.2,40.2,3.4,34.7,13.2,4.7c0.7,1.9,1.3,7.8,3.2,13.7
			c11.9,37.8,15.9,6.8,17.6,6c0.1,1.2,0.2,2.4,0.3,3.5c-2.1,1.6-1.5,2.9,0.2,3.8C205.4,278.5,205.4,274.8,203,290.4z M208.2,332.9
			c-0.1,0-0.2,0-0.3,0c-1.9-20.9,2.8-42.1,5.7-69.1c0.1,0,0.2,0,0.3,0C218.6,287.2,212.8,319.3,208.2,332.9z M216.3,243.8
			c5.2,16,11.7,18.5,13.1-10.8c2.4,3,16.5,24.9,18.8,17.5c2.1-6.6-0.4-15.5-2.5-22c0.8,0.3,37,19.9,20.7-3.7c-0.9-1.3-0.8-1-0.7-1.3
			c5.1,4.5,21.9,23.6,21.1,26.3c-1.3,4.6,2,9.5,6.9,7.7c4.4,5.5,3.1,10.1-1.4,13.5c-5.2,3.9-8.1-3.6-4.3-4.7
			c-0.5,5.7,5.7,3.2,4.4-0.5c-1.7-4.8-9.8-1.9-8.6,3.9c0.5,2.5,1.6,4.4,4.1,4.7c6,1,10.7-4.8,11.1-10.1c3.7,3.6,7.4,7.1,11.1,10.8
			c-23.5,7.1-42.8,8.6-87.1,34c3.4-32.5,19.5-12.6,9.9-12.8c4-3.4-3.6-5.1-3.3-0.9c0.5,7.6,14.7,0.6,5.7-7.1c4.8,0.6,9,1.3,15-2.7
			c2-1.3,3.2-3.2,3.7-5.6c0.2-1,4.5-15.3,11.7-21.5c11.2-9.5,18.3,5.8,8.8,10.7c-4.5,2.3-8-3.4-5-5.6c-0.9,4.1,4.3,4.3,4.7,1.2
			c0.6-4.8-7-6.1-8.5-0.5c-1.4,5.6,3.5,9.2,7.7,8.6c19-2.5,6.7-34.2-10.5-17.2c-8.4,8.4-8.5,16.7-9.7,18.1
			c-5.8-9.1-15.3-3.2-13.1,3.3c0.9,2.6,4,3.7,6.3,2.2c5.2-3.5-3.6-9-2.4-2.5c-1.4-0.2-1.2-2.5,0.1-3.7c5-4.4,10.7,6.1,4,10.4
			c-10.7,6.7-23.4-1.9-24-5.5C221.7,261.2,215.3,245.2,216.3,243.8z M224.8,282.5c7.6,4.8,4.7,2.8,8.9,5.2c-3.5,0-6.2,1.6-8.7,4
			C225,288.6,224.9,285.6,224.8,282.5z M219.8,324.1c2.6-10.6,1.9-8.9,8-12.1C227.2,313.1,221.7,323.5,219.8,324.1z M227.3,318.7
			c4-12.8,6.8-9.1,12.9-7.5C235.8,313.8,231.6,316.2,227.3,318.7z M237.6,306.7c5.9-2.8,11.8-5.7,17.7-8.5c0,0.1,0.1,0.1,0.1,0.2
			C249.3,307.3,249.3,310.6,237.6,306.7z M255.5,304.5c1-2.2,8-11.5,10.5-10.6c0.3,0.1,10.4,3.4,11.6,3.9
			C270,299.8,262.8,301.7,255.5,304.5z M272.6,291.2c0-0.1,0-0.2-0.1-0.3c5.9-1.9,11.8-3.8,17.6-5.7c0.1,0.1,0.1,0.2,0.2,0.3
			c-2.5,3.3-5.1,6.5-7.7,9.9C279.3,293.9,276,292.5,272.6,291.2z M286.4,295.6c0-0.1,9.1-13.8,11.7-12.2c4.4,2.7,21.5,7.2,25.6,8.2
			C311.2,291.8,298.8,293.1,286.4,295.6z M304.8,281.5c0-0.1,0-0.2-0.1-0.2c12.1-2.4,9.4-3.5,20.5,5.4
			C318.3,284.9,311.6,283.2,304.8,281.5z"/>
		<path class="st27" d="M84.8,350.2c0.1,1-0.1,1.6-0.8,2.2c-12.4,11.4-6.9,13.2,4.1,2.6c2.8,0.9,5.3,0.9,7.7-1.7
			C107.4,340.9,83.1,334.2,84.8,350.2z"/>
	</g>
	<g>
		<path class="st9" d="M186.2,159.1c-12-82.1,75.6-77.9,45.7-8.3c-0.7,1.7-0.6,1.5-0.5,1.8c29.8-17,52.4,4,45.7,18.3
			c-11.9,25.6-30,13.4-54.4,18.8c0,1.6,0.3,3.3-0.8,6.2c-5.6,15.5-8.1,14.8-15.2,14.3c-16.2-1.2-19.2-0.9-19.1-17.2
			c-0.9-1-2.2-1.2-3.6-1.4c-95.8-12.7-64.2-103,1.8-32.5C186,159.1,186.1,159.1,186.2,159.1z M209.8,184c8.7-24.7,18.1-25.5,22.6-50
			c2.7-14.5-5.2-23.6-12.4-24.6C183.8,104.2,193.8,185.2,209.8,184z M198.2,185.7c-10.5-14.5-50-55.6-61.4-41.7
			c-21.1,25.7,51.2,47.6,56.5,44.6C194.9,187.7,196.4,186.8,198.2,185.7z M217,184.8c3.8,1.5,9.3-3.3,27.2-1.5
			c23.4,2.3,33-18.9,13.3-25C240.8,153.1,226.3,167,217,184.8z"/>
		<path class="st9" d="M186.4,204.5c-28.8,1.4-14-9.6-45.2,2.2c-8.9,3.4-1.2,25.6-22.3,40.3c-7.2,5-3.5-20,5.2-31.4
			C122.7,216,97.6,244,81,229.1c-19-17-0.7-15.2,7.8-17.4c21.9-5.7,29.1,5.9,33.1,0.7c-18.6-6.9-17.8-16.5-26.7-25.7
			c-0.6-0.6-0.9-1.3-0.5-2.1c1.5-3.5,19.6-1.2,30.3,14.8c7.9,11.9,11.1,5.5,28.8-0.2c-18.1-7.5-18.3-16.3-36.7-27.4
			c-32.8-19.7-46.9,26.3-46.9-8.1c-7.7-0.8-20.8,3.4-14.4-5.5c27.9-38.5,69.5,14.1,98.2,27.9C186.6,202,182.4,183.1,186.4,204.5z"/>
		<path class="st9" d="M286.1,180.5c39.4,6.2,17.4,23,1.9,12.7c-3.1-2.1-2.6-2.1-9.4-6.7c-7.5,4.8-4.3,3-12.1,7
			c49.8,9.6,56.5,63.5,88.6,18.8c0.6-0.9,1.5-1.3,2.6-1.1c5.7,1,0,15.6,0.1,15.7c12.7-4.7,22.8-19.8,19.6-5.4
			c-1.3,5.7-4.3,10.5-8.4,14.5c-41.5,40.6-66.2-41.6-148.6-27.7c4.5-8.7,4.1-7,5.1-14.9c18.8-7.8,28.4,7.4,50.3-9.7
			c6.3-4.9,3.7-1.5,6.6-20.2c1.2-7.6,5.1-12.6,6.8-17.7c0.4-1.3,1.1-1.9,2.1-2c1-0.1,2,0.6,2.5,1.8c5.2,13.8,1.2,19.4,0.8,21.5
			c11.9-5.5,2-11.5,30.1-15.4c2.1-0.3,3.6,1.5,2.3,4.1c-7.4,14.1-20.5,7-40.3,24.2C286.4,180,286.3,180.2,286.1,180.5z"/>
		<path class="st10" d="M267.1,118.5c7.4,1,11.3,5.6,11.7,10.5c1.1,12.4-21.4,19.2-22.7-1.6c-11.1,6.5-13,13.7-16,17.7
			c-4.3,5.8-0.9-15.3,16.8-23.7c3.8-1.8-3-6.1,30-22.1c26.3-12.7,28.1-29.8,22-31.7c-4.1-1.2-2.9-3.6-0.9-3.7
			c7.4-0.4,25.8,15.1-29.7,45.7C273.4,112.3,270.1,115.2,267.1,118.5z M263.6,124.6c-5.5,13.1,11.6,11.4,8.2,3.5
			C270.4,124.8,267.4,123.5,263.6,124.6z"/>
		<path class="st10" d="M139.5,112.7c5.4,15.5-17.4,19.1-16.3,6c0.5-6.2,3.2-8.4,7.2-10.9c-8-4.2-31.3,10.9-44.3-7.4
			c-2.1-2.9-3-6.1-2.3-9.7c0.9-5,5.2-2.5,3.1-1.4c-4.1,2.2,0.6,20.5,24,16.7c44-7.2,70.2,25.2,68.5,36.9
			C177.8,153.5,170.7,116.4,139.5,112.7z M135.5,112.5c-8.8,0.6-7.6,12.7-2.4,9C136,119.5,136.3,116,135.5,112.5z"/>
		<path class="st10" d="M180.4,93.1c22.6-6.1,7.2,29.7-3.2,8.6c-5.6,7-1.5,18.3,4,24.7c3.7,4.3-10.3,0.8-11.3-16.1
			c-0.6-10.4,6.3-13.6,6.6-16.5c0.7-7.7,4.8-17.5,13.2-20.7c4-1.5,4.3,1.5,2.9,1.7c-3,0.4-5.1,2.2-6.9,4.4
			C182.4,83.4,180.4,89.9,180.4,93.1z M180.7,98.4c1.8,9.4,10,3.9,5.6,0C184.7,97,182.7,97,180.7,98.4z"/>
		<path class="st28" d="M288.9,251.1c1.1,1.4,2.2,2.9,3.3,4.3C289.9,255.9,288.4,254,288.9,251.1z"/>
		<path class="st9" d="M214,113.6c2.5-0.1,5.3,2.8,3.2,5.2c-0.2,0.2-3.7,3.4-5.6,5.5c-11,11.7-6.9,39.1-8.2,41.3
			C198.9,173.2,189.5,114.5,214,113.6z"/>
		<path class="st9" d="M168.7,178.3c-2.4,0.5-42.5-14.7-30.6-32.4c0.9-1.4,2.4-1.9,4-1.9c1.6,0,2.7,1,2.9,2.6
			C147.7,169.6,178.4,176.3,168.7,178.3z"/>
		<path class="st9" d="M251.3,161.7c4.3,0.8,7,0.7,9,3.7c7,10.3-17.2-0.4-31.4,11.9c-16.5,14.4,1.1-15.4,22.3-15.4
			C251.3,161.8,251.3,161.7,251.3,161.7z"/>
	</g>
</g>
</svg>
