<svg id="Layer_1" data-name="Layer 1" xmlns="http://www.w3.org/2000/svg" viewBox="0 0 360.03 203.93">
  <title>santasmall</title>
  <path class="cls-1" style="fill:#cb9732;" d="M232.39,125.9c-.36-7.47-3.8-14.28-4.57-21.66-.14-1.33-1.1-1.17-2-1.08-1.51.16-3,.49-4.51.56-4.58.24-7.74-2.18-8.52-6.33-.28-1.5-.12-2.52,1.74-2.46,1,0,2,0,3,0,21.76,0,43.53-.21,65.29.13,6.19.09,9.62-2.27,11.78-7.73,2.93-7.39,5.42-14.92,7.74-22.52.83-2.72-.23-3.13-2.46-2.61-2.7.63-5.37,1.4-8.08,2-5.82,1.28-10.23-2.47-10.23-8.45,0-2.61,1.67-2.05,3.1-1.91,6.29.63,12.56,1.33,18.85,2,1.08.11,2.37.51,3.06-.78.45-.84,0-1.71-.32-2.54-.74-1.81-2.07-1.11-3.18-.67-7,2.77-13.17.59-19-3.17a11.81,11.81,0,0,1-4.57-13.11,2.45,2.45,0,0,1,2.47-1.95,2.2,2.2,0,0,1,2.13,2.26c0,.88,0,1.77,0,2.66-.08,4,2.09,6.31,5.55,7.72,4.05,1.65,8.14,2.84,12.4.65,1.34-.69.52-1.59,0-2.15-1.24-1.41-2.65-2.67-4-4-3.24-3.15-6.92-5.94-8.26-10.57A2,2,0,0,0,288,28.7c-5.63-.57-9.95-4.05-14.62-6.73-1.67-1-2.34-2.48-1.15-4.13s2.58-.77,4,0a78.54,78.54,0,0,0,8.88,5c2.48,1,3.84.54,4.44-2.08a15.58,15.58,0,0,1,4.2-7.49c1.22-1.24,2.42-2.94,4.43-1.28s.47,3.11-.63,4.45c-4.35,5.29-4.72,11.2-.85,15.84.94,1.12,2,2.7,3.69,2.11,1.54-.53,2-2.12,2.05-3.75.1-1.89.35-3.77.59-5.65.2-1.54.89-2.65,2.66-2.56a2.29,2.29,0,0,1,2.37,2.8c-.6,4.3,0,9-3.56,12.43-.93.9-.58,1.4.13,2.15a27.11,27.11,0,0,1,7,13.21c.35,1.59,1.37,2.13,2.91,2.47,7.51,1.66,15,3.36,22.47,5.29,2.26.59,5.72.55,5.69,3.91s-2.43,5.76-5.81,6.58A57.48,57.48,0,0,1,329,72.6c-9.39.94-11.46,2.81-12.87,12.13-1.34,8.88-1.81,17.85-2.35,26.8-.82,13.69,3.53,26.38,7.37,39.2,2.89,9.67,7.31,18.73,10.76,28.18.37,1,1.43,2.25.19,3.07s-2.37-.16-3.35-1c-3.76-3.36-5.89-7.84-8.22-12.14-6.54-12.09-13.31-24-22.39-34.46a8,8,0,0,0-6.8-3.06c-9.36.17-18.73.12-28.09,0-2.32,0-3.5.22-3.88,3.08-1,7.44-6.72,10.55-13,12.75a101.49,101.49,0,0,1-11.66,3.23c-10.36,2.3-15.27,9.41-17.5,19.12-.79,3.43-1.89,6.79-2.92,10.17-.36,1.18-.8,2.88-2.26,2.56s-.92-2.14-.95-3.31c-.18-7.93,2-15.48,3.88-23.08.33-1.34.63-2.7.94-4,.21-5.5,3-9.51,8-11.33,5.59-2,9.1-5.82,8.42-11.79C232.2,127.55,232.5,126.87,232.39,125.9Z"/>
  <path class="cls-2" style="fill:#b82025;" d="M73.13,117.56l-1,3.53c-.59,1.11-1.66,1-2.65,1-5.42,0-10.88.41-16.26-.09C45.58,121.3,38,120,31,116.79c-1.54-.69-3-1.43-3.46-3.2-.33-8,.37-15.89,3.74-23.33a26.4,26.4,0,0,1,5.83-8.76C39,79.73,38.16,79,36.37,78a19.1,19.1,0,0,0-6.54-1.75c-1.92-.23-3.39-.78-1.54-3,1.61-1.9.68-3.06-.95-4.31-1.15-.89-2.69-2-2-3.7s2.47-.94,3.79-.88c4.58.21,9,.35,13-2.75,2.16-1.7,2.53.29,2.61,1.86.17,3.28.13,6.57.32,9.85.07,1.17,0,2.44,2.19,2,7.64-1.55,13.45,1.73,18.27,7.4,4.65,5.47,6.5,12.11,8.09,18.87C74.27,107,74.78,112.31,73.13,117.56Z"/>
  <path class="cls-2" style="fill:#b82025;" d="M76.53,112.13c-2.3-9.36-1-18.46,2.49-27.21,3.91-9.84,12.14-13.38,22.12-10A47.47,47.47,0,0,1,118.35,85c4.38,4.05,9.05,5.38,14.92,3.9,6.37-1.61,8.06.32,6.85,6.9-1.34,7.27-4.27,9.34-11.67,8.24-5.59-.82-10.56-3.33-15.55-5.76-1.68-.82-3.33-1.72-5.27-2.72.43,2.64,2.64,3.41,3.93,5-.55,1.35-1.94.77-2.87,1.24-1.9,1.79-4.46,1.67-6.75,2.13A80.28,80.28,0,0,0,80.85,111,11.77,11.77,0,0,1,76.53,112.13Z"/>
  <path class="cls-3" style="fill:#cbcbcb;" d="M124.84,82.17l-.45-2.89c-.39.17-.7.21-.83.38-3.27,4.39-3.7,4.44-8,1.18a47.3,47.3,0,0,0-18.79-8.58c-4.19-.91-8,.3-11.58,2.43-.85.5-1.44,2.25-2.77,1-1.09-1-2.48-2.61-1.55-3.92,1.54-2.15,0-2.89-1.1-4-1.43-1.43-3-2.76-3.74-4.72-.26-.67-1-1.38-.32-2.07s1.39-.34,2.15-.18c6,1.3,6.2,1.39,9.3-3.81,2.48-4.15,6.17-7,9.81-9.86.54-.43,1.3-1.07,2-.6s.46,1.34.32,2.07a29.57,29.57,0,0,0-.56,3c-.66,7.3,4.12,9.44,9,6.07a3.93,3.93,0,0,1,3.6-.75,6.17,6.17,0,0,0,6.05-.94c.91-.62,2-.69,2.2.29.91,5,5.55,7.56,7.28,12,1.62,4.16,2.61,8.2.07,12.3A2.88,2.88,0,0,1,124.84,82.17Z"/>
  <path class="cls-4" style="fill:#b92025;" d="M102.35,31.27C90.17,37,77.19,41.41,77.85,58.54c-3.73-1.78-6.8-4.23-8-8.42C69,46.9,67,45.61,63.73,45.84c-2.52.18-5.05.31-7.58.25a9.44,9.44,0,0,1-8.45-4.86c-.49-.85-1.47-1.79-.3-2.6S49,36.1,50.81,36.92c4.67,2.15,8.86.23,13.09-1.49,7.36-3,14.68-6.16,22.65-7.19C92,27.53,97.38,27.81,102.35,31.27Z"/>
  <path class="cls-4" style="fill:#b92025;" d="M117.9,116.86a7,7,0,0,0,1.46-.34c8.41-4,14.69-4.72,24.49,5a107.87,107.87,0,0,1,12.12,15,10.3,10.3,0,0,1,2,5.24c-.48.88-.32,2-1,2.81-1.64,2-3.63,2.12-4.9-.08-8.14-14.2-21.43-19.88-36.68-22.35a14.83,14.83,0,0,1-2.51-.82c-1.78-.62-1.26-1.51-.2-2.43C114.15,117.53,116.16,117.57,117.9,116.86Z"/>
  <path class="cls-5" style="fill:#cb9932;" d="M338.7,136.27c-.51,4.7-.68,10.39-2.71,15.8a10.14,10.14,0,0,1-4.51,5.4c-1.33.76-3.28,2-4.32,0-1-1.85-1.43-4.71.94-5.71,3.85-1.62,5.21-4.1,4.49-8-.85-4.59-2.93-8.32-7.46-10.2-1-.43-2.24-.53-3.24-1-1.43-.73-3.62.58-4.42-1.31a27.76,27.76,0,0,1-1.83-8.87c-.11-1.39,1.13-1.18,1.93-1,5.89,1.37,11.94,2.32,17.51,4.72C339,127.79,338.66,131.76,338.7,136.27Z"/>
  <path class="cls-3" style="fill:#cbcbcb;" d="M111.61,42.56c-3.14-4.7-4-4.93-8.82-1.52-6.78,4.82-13.59,9.62-18,17-1.52,2.54-3.6,2.36-4.78-.29a7.52,7.52,0,0,1-.49-5.86,18.18,18.18,0,0,1,3.28-6.35c6.38-7,13.83-12.23,23.75-12.22C112,33.34,114.51,38.18,111.61,42.56Z"/>
  <path class="cls-6" style="fill:#030303;" d="M82.54,119a7.54,7.54,0,0,1-1.4.45c-1.75.22-3.7,2.51-5.19-.14-1.37-2.44-1.1-4.77,1.56-6.37,5.81-4.53,12.84-6.21,19.7-8.16a53.57,53.57,0,0,1,14-2.25,26,26,0,0,1,5.23,0c2.36.44,4.73,1.29,3.66,4.63-1.37,2.47-4,2.54-6.23,2.92-9.56,1.63-19,3.75-27.69,8.17A11.66,11.66,0,0,1,82.54,119Z"/>
  <path class="cls-7" style="fill:#020202;" d="M158.86,143.42c2.53-.47,2.87,2,4,3.21,1.52,1.72,2.5,1.66,3.86-.08a52.28,52.28,0,0,1,5.43-6.31c3.34-3.11,7-2.77,9.52.57,2.26,2.93,1.43,6.07-2.33,8.58-2.65,1.77-5.68,2.7-8.6,3.9-.86.35-2.37.55-1.86,1.88,1.62,4.26-2.38,4-4.23,5.12-2.42,1.41-3.11-1.3-4.09-2.7-2-2.9-3.84-5.93-5.75-8.9C154.5,145.66,156.73,144.58,158.86,143.42Z"/>
  <path class="cls-4" style="fill:#b92025;" d="M147.79,107.18c-6.14,0-8.16-2.72-6.65-8.69.49-1.95.54-4,1-6a3.22,3.22,0,0,1,2.5-2.59c1.59-.3,1.83,1.08,1.94,2.19.15,1.57.67,1.75,2.19,1.3,5-1.47,6.78-.81,8.05,2.64a8.19,8.19,0,0,1-3.86,10A10.81,10.81,0,0,1,147.79,107.18Z"/>
  <path class="cls-8" style="fill:#f8f4f2;" d="M158.86,143.42c-.45,2.46-4,2.53-4.08,5.26l-1.07-.94-.28,1.06c-8.24-18.15-24.13-24.15-42.25-26.67-9.17-1.28-18.38-.62-27.58-.75-.69-.66.07-2-1.06-2.42,9.25-5.5,19.53-7.85,30-9.75a27.19,27.19,0,0,0,7.61-2.13l.95.78c-1.28,3.48-4.63,3.16-7.29,3.67a147,147,0,0,0-19.49,4.85c-2.62.89-5.15,2-7.73,3-.44.28.21.9,0,.45-.07-.13,0-.18.12-.28,1.19-1,2.62-.68,4-.71,2.91-.05,5.82-.13,8.72,0,4.75.23,9.33-.06,13.42-2.91.74-.52,1.72-1.2,2.76-.37.23,1.48,1.43,1.18,2.39,1.31l-6.43,3.61c7.43,1.3,14.15,2.65,20.47,5.43,8.38,3.68,15.38,9,20,17,2.08,3.57,2.44,3.61,4.91.36.38-.5.69-1,1-1.56C158.07,142.38,158.14,143.07,158.86,143.42Z"/>
  <path class="cls-2" style="fill:#b82025;" d="M115.51,115.55c-5.59,4.52-12.09,4.77-18.86,4.25-3.85-.29-7.74-.05-12.6-.05a78.45,78.45,0,0,1,20.8-7.47c4.18-.94,8.4-1.67,12.58-2.61,1.32-.29,2.75-.56,3.62-1.82,3.17,3.52,3.06,4-1.06,5.69C118.47,114.16,117,114.88,115.51,115.55Z"/>
  <path class="cls-9" style="fill:#523326;" d="M225.75,116.7c-22.29-2-44.55-3.14-66.29-8.33-1.45-.35-4.42,0-4-1.9.45-2.12,3-.79,4.62-.41,17.06,3.92,34.43,5.47,51.81,7,4.66.4,9.33.73,14,1.14,1.31.12,3.32-.06,2.94,1.94C228.49,117.72,226.69,116.4,225.75,116.7Z"/>
  <path class="cls-10" style="fill:#f9d8c6;" d="M113.45,56.06c-2.94-1.4-5.27-.37-7.7.92-2.94,1.56-5.47.14-5.38-3.16.12-4.55-.36-9.47,4.41-12.45,2.47-1.54,4.27-1.56,4.79,1.86.17,1.11.44,2.21.66,3.31.45,2.23,1.51,3.66,4.09,3.46,2-.16,4.41.42,3.88,2.77C117.79,54.6,115.65,56,113.45,56.06Z"/>
  <path class="cls-9" style="fill:#523326;" d="M212.82,109c-17.26-1.11-34.54-2-51.5-5.79-1.12-.25-3.24.3-2.73-1.92s2.13-.62,3.1-.42c19.74,4.1,39.82,4.9,59.85,6.05,1.13.07,2.27.11,3.41.1s2.09.46,2,1.69-1.25.9-2.05.87C220.89,109.39,216.86,109.18,212.82,109Z"/>
  <path class="cls-11" style="fill:#cccbcc;" d="M43.89,27.18c2.89.06,5.6,2.78,5.49,5.51a5.83,5.83,0,0,1-5.82,5.18c-2.9-.06-5.59-2.77-5.48-5.51A5.79,5.79,0,0,1,43.89,27.18Z"/>
  <path class="cls-8" style="fill:#f8f4f2;" d="M27.49,113.59c4.59,3.94,10.35,5,16,6.2,9.45,2.09,19,1.84,28.64,1.3.35.8,1.09,1,1.84,1.11-15.11,1.66-30,1.1-44.16-5.12-1.46-.64-2.86-1.74-4.64-1C25.73,115,27.59,115.26,27.49,113.59Z"/>
  <path class="cls-5" style="fill:#cb9732" d="M223.26,138.94c6.4-1.79,8.57-5.92,7.78-12.15a18.68,18.68,0,0,1,0-2.63h0c-.29-.72-.63-2.15-1.52-.77-3.21,5-8.13,7.38-13.5,8.95a12.69,12.69,0,0,0-8.31,7.06c-3.28,6.73-5.19,13.92-7.21,21.07a76.27,76.27,0,0,0-2.76,14.86c-.08,1-.18,2.24,1,2.61s1.63-.85,2.09-1.73c2-3.83,2.83-8.07,4.27-12.09,1.88-5.23,3.73-10.5,9.07-13.38.89-1.93,1.77-3.86,2.67-5.78C218.2,142.09,220.31,139.76,223.26,138.94Z"/>
  <path class="cls-8" style="fill:#f8f4f2;" d="M111.21,102.48c-6.46,1.64-13.18,2.23-19.45,4.58-4.8,1.8-9.5,3.88-14.24,5.84l-1-.76c10-5.8,20.81-8.88,32.16-10.38C109.37,102.56,110.36,102.27,111.21,102.48Z"/>
  <path class="cls-8" style="fill:#f8f4f2;" d="M82.3,121.45c-2.54.91-5.19.7-7.82.72C77,120.54,79.69,121.62,82.3,121.45Z"/>
  <path class="cls-12" style="fill:#80391b;" d="M183.17,164.95c-2.06.4-5.37-2.08-5.67,2.94-.5,8.32-6.78,14-15,14.08-12,.13-24,0-36,.08-2.14,0-2.88-.6-2.82-2.78.14-4.8.2-9.62,0-14.42-.13-2.8.64-3.7,3.54-3.62,8,.2,15.94.12,23.9,0,4,0,5-1.28,4.17-5.15-.5-2.46-1.17-4.89-1.77-7.34a28.4,28.4,0,0,0-1.61-5c-3.5-6.73-8.93-11.42-15.43-15.05-15.92-8.9-33.32-8.77-50.77-8.32a2.87,2.87,0,0,0-2,.92l-1.3.07c-2.55.9-5.29-.34-7.82.72a.35.35,0,0,1-.55,0c-2.87.13-5.69-.53-8.57-.4-12.21.54-24.13-.81-35.48-5.7a5.83,5.83,0,0,0-4.74-.06,6.14,6.14,0,0,0-1.28,3.86A130,130,0,0,0,31,157.35c1.08,3,2.79,4.07,5.92,4,8.09-.16,16.19,0,24.28-.09,2.08,0,2.9.52,2.84,2.73-.14,5.06-.17,10.12,0,15.18.09,2.48-.88,2.93-3.09,2.88-5.82-.14-11.64,0-17.45-.07-8.48-.14-14.74-5.82-15.23-14.27-.29-5-3.76-2.33-5.79-2.74-2.92-.6-2.42,1.74-2.29,3.45.94,12.57,10.55,21.46,23.49,21.48q54.45.09,108.91,0c4,0,8.1.13,12.14-.12a22.58,22.58,0,0,0,20.74-21.4C185.57,166.71,186.12,164.38,183.17,164.95ZM112.83,182c-6.32-.08-12.65,0-19,0s-12.65,0-19,0c-1.78,0-2.81-.2-2.75-2.4.14-5.31.1-10.62,0-15.93,0-1.77.49-2.43,2.34-2.42q19.35.09,38.7,0c1.86,0,2.37.63,2.33,2.41-.09,5.31-.13,10.63,0,15.93C115.6,181.8,114.63,182.06,112.83,182Z"/>
  <path class="cls-13" style="fill:#f7f4e1;" d="M312.18,63.73c-1.13-.07-2.08-.6-2.1-1.74,0-2.08,1.08-4.33,3.33-2.31.37.33,1.15.93,1.15,1.8C314.55,63,313.69,63.74,312.18,63.73Z"/><path class="cls-14" style="fill:#20201e;" d="M119.07,60c-2.3,2.82-4.23,3-7.46.8C114.23,60.53,116.72,61.17,119.07,60Z"/>
  <path class="cls-15" style="fill:#29211d;" d="M104.74,48.56c.41-1.23,1.8-1.1,2.68-1.61.52-.3,1.17.78,1,1.59a1.78,1.78,0,0,1-1.83,1.58A1.69,1.69,0,0,1,104.74,48.56Z"/>
  <path class="cls-16" style="fill:#c1272d;" d="M340.8,64.4c-1.13-.07-2.08-.6-2.1-1.74,0-2.08,1.08-4.33,3.33-2.31.37.33,1.15.93,1.15,1.8C343.17,63.69,342.31,64.41,340.8,64.4Z"/>
</svg>