<?xml version="1.0" encoding="utf-8"?>
<!-- Generator: Adobe Illustrator 21.1.0, SVG Export Plug-In . SVG Version: 6.00 Build 0)  -->
<svg version="1.1" class="yule" id="Calque_1" xmlns="http://www.w3.org/2000/svg" xmlns:xlink="http://www.w3.org/1999/xlink" x="0px" y="0px"
	 viewBox="0 0 432 432" style="enable-background:new 0 0 432 432;" xml:space="preserve">
<g>
	<g>
		<path class="st18" d="M240.2,264c1.1,1,2.3,1.9,3.8,2c2.6,0.3,5.1,0.9,7.5,2c1.8,0.9,3.5,1.8,5.2,2.8c0.1,0.1,0.3,0.1,0.3,0.2
			c0.1,0.2,0.3,0.5,0.2,0.7c-0.1,0.3-0.4,0.5-0.7,0.4c-0.3,0-0.5-0.2-0.8-0.3c-3.2-1.7-6.7-2.9-10.2-3.9c-0.4-0.1-0.9-0.2-1.4-0.2
			c0.2,0.1,0.3,0.3,0.5,0.4c1.7,1,3.3,2,5,2.9c2.7,1.4,5.3,2.9,7.8,4.5c0.2,0.2,0.5,0.3,0.7,0.5c0.4,0.4,0.5,0.7,0.3,1
			c-0.2,0.3-0.6,0.5-1.1,0.3c-0.3-0.1-0.6-0.2-0.8-0.4c-1.4-0.7-2.8-1.4-4.3-2c0.2,0.2,0.3,0.4,0.5,0.5c1,0.8,1.9,1.8,2.7,2.8
			c0.9,1.1,1.8,2.2,2.7,3.3c0.3,0.3,0.6,0.6,0.8,1c0.4,0.5,0.4,0.8,0.2,1.1c-0.3,0.3-0.6,0.2-1-0.2c-0.6-0.6-1.1-1.1-1.7-1.7
			c-0.9-1-1.8-1.9-2.6-2.9c-1.5-1.8-3.4-2.9-5.3-4.2c0.1,0.2,0.1,0.4,0.2,0.5c0.7,0.9,1.3,1.9,2,2.8c0.1,0.2,0.3,0.3,0.4,0.5
			c0.3,0.6-0.1,1.2-0.7,1.1c-0.4,0-0.8-0.2-1-0.5c-0.7-0.7-1.4-1.5-2.1-2.4c-0.8-0.9-1.5-1.9-2.3-3.1c0,0.4,0,0.6,0.1,0.8
			c1,3.7,1.1,7.4,0.7,11.1c-0.1,0.9-0.1,1.8-0.2,2.7c0,0.2,0,0.4-0.1,0.6c-0.2,0.6-0.6,0.9-1.2,0.9c-0.6,0-1-0.4-1-1
			c-0.1-1-0.1-2-0.1-3.1c0-2.6-0.1-5.3-0.6-7.8c-0.4-2.2-0.8-4.5-1.6-6.7c-0.7-1.7-1.7-3.2-3-4.5c0.1,0.3,0.2,0.6,0.3,0.9
			c0.6,2.2,1.2,4.4,1.3,6.6c0,1.5,0,3-0.1,4.5c0,0.2-0.1,0.4-0.1,0.5c-0.2,0.4-0.6,0.6-1,0.6c-0.5,0-0.8-0.3-0.9-0.8
			c-0.1-0.4-0.1-0.9-0.1-1.3c0.2-7.8-2.6-14.5-7.7-20.4c-0.2-0.2-0.4-0.5-0.6-0.7c-0.1,0-0.1,0.1-0.2,0.1c0,0.2,0.1,0.4,0.1,0.5
			c1,2.9,1.6,5.9,1.9,9c0,0.4,0.1,0.9,0.2,1.3c0.1,0.8-0.2,1.2-0.8,1.4c-0.6,0.1-1.1-0.2-1.3-0.9c-0.3-0.9-0.5-1.7-0.7-2.6
			c-0.9-3.3-2.1-6.4-3.6-9.4c-1.6-3.1-4.1-5.6-6.9-7.6c-0.1-0.1-0.2-0.1-0.3-0.2c0,0-0.1,0-0.2,0c0.2,0.3,0.3,0.6,0.5,0.9
			c1.8,3,3.3,6.1,4.2,9.6c0.1,0.4,0.2,0.7,0.2,1.1c0,0.5-0.2,0.9-0.7,1.1c-0.4,0.2-0.9,0.1-1.3-0.3c-0.2-0.2-0.3-0.5-0.4-0.7
			c-0.7-1.4-1.4-2.8-2-4.2c-1.3-2.7-3-5.1-5-7.3c-1.3-1.4-2.6-2.4-4-3c0.2,0.3,0.3,0.6,0.4,0.8c1.9,3,3.5,6.1,4.9,9.4
			c0.2,0.5,0.4,1.1,0.5,1.7c0.1,0.6-0.1,1-0.6,1.1c-0.4,0.2-0.9,0-1.2-0.4c-0.2-0.2-0.3-0.4-0.4-0.6c-0.5-1-1-1.9-1.5-2.9
			c-1.3-2.4-2.7-4.7-4.3-6.9c-2.4-3.3-5.6-5.4-9.3-6.8c-0.1,0-0.1,0-0.3,0c0.1,0.1,0.2,0.2,0.3,0.3c2.3,1.9,3.9,4.3,5.4,6.9
			c1.4,2.3,2.6,4.7,3.6,7.2c0.1,0.3,0.3,0.6,0.3,0.9c0,0.2-0.1,0.6-0.2,0.7c-0.2,0.1-0.6,0.2-0.8,0.1c-0.3-0.2-0.6-0.5-0.8-0.8
			c-0.5-0.8-0.9-1.6-1.4-2.4c-1.2-2.1-2.3-4.2-3.5-6.2c-1-1.7-2.2-3.2-3.6-4.6c-0.7-0.6-1.5-1.2-2.2-1.8c-0.6-0.5-1.3-0.6-2.1-0.6
			c-1.8,0.1-3.5,0.1-5.3,0.3c-1.5,0.2-3,0.6-4.5,0.9c-0.3,0.1-0.6,0.1-0.9,0.1c-0.4,0-0.7-0.2-0.7-0.6c0-0.3,0.1-0.7,0.3-0.8
			c0.5-0.3,1.1-0.6,1.8-0.8c2.5-0.8,5-1.1,7.6-1.2c1.4-0.1,2.8-0.2,4.2-0.2c1.2,0,2.5,0.1,3.7,0.2c0.5,0.1,1,0,1.4-0.2
			c3.6-1.4,6.9-3.2,10.2-5.3c0.4-0.2,0.8-0.5,1.2-0.7c0.6-0.3,1.1-0.1,1.4,0.3c0.2,0.4,0.1,0.9-0.4,1.3c-0.3,0.2-0.5,0.4-0.8,0.6
			c-2.3,1.4-4.7,2.8-7,4.1c-0.1,0-0.1,0.1-0.2,0.3c1.2-0.1,2.5-0.3,3.7-0.4c3.9-0.4,7.5-1.7,11.2-3c0.5-0.2,1-0.4,1.6-0.5
			c0.7-0.2,1.3,0.1,1.6,0.6c0.2,0.5,0.1,1.2-0.5,1.5c-0.9,0.6-1.8,1.2-2.8,1.6c-1.9,0.8-3.8,1.4-5.8,2c-0.3,0.1-0.5,0.2-0.8,0.4
			c0.4,0,0.8,0.1,1.2,0.1c3.9,0.1,7.6-0.3,11.4-1.1c1.5-0.3,3-0.7,4.5-1c0.5-0.1,0.9-0.1,1.4-0.1c0.5,0,0.9,0.3,1.1,0.8
			c0.2,0.5,0.1,1-0.3,1.3c-0.3,0.3-0.7,0.5-1.1,0.7c-3.4,1.6-6.9,2.5-10.6,2.6c-0.4,0-0.7,0.1-1.1,0.2c0.2,0.1,0.4,0.2,0.5,0.2
			c3.8,1,7.5,2.1,11.4,2.6c2.6,0.3,5.3,0.5,7.9,0.7c1.3,0.1,2.6,0.1,3.9,0.1c0.2,0,0.4,0,0.6,0.1c0.6,0.2,1,0.7,1,1.3
			c0,0.6-0.3,1.1-1,1.3c-0.1,0.1-0.3,0.1-0.4,0.1c-3.1,0.3-6.2,0.5-9.3,0.2c-0.5,0-1-0.1-1.5,0c0.7,0.1,1.4,0.3,2.1,0.4
			c5.3,0.8,10.6,1.4,15.9,1.9c0.6,0.1,1.3,0.1,1.9,0.2c0.3,0,0.6,0.1,0.8,0.2c0.4,0.2,0.6,0.5,0.6,0.9c0,0.4-0.4,0.8-0.9,0.8
			c-0.3,0-0.6,0-0.8,0c-4.9-0.2-9.8-0.5-14.7-1.4c-2.1-0.4-4.2-0.8-6.3-1.2c-0.1,0-0.2,0-0.4,0.1c0.3,0.2,0.6,0.4,0.9,0.6
			c2.6,1.5,5.4,2.5,8.2,3.4c2.6,0.8,5.3,1.1,8,1.5c2.7,0.4,5.4,0.9,8.1,1.4c0.9,0.2,1.2,0.5,1.1,1.1c-0.1,0.5-0.6,0.8-1.4,0.8
			c-1-0.1-2-0.1-3-0.3c-3.3-0.4-6.7-0.8-10-1.3c-1.9-0.3-3.7-0.9-5.5-1.6c-0.3-0.1-0.6-0.2-1-0.3c1.1,1.2,2.4,2.3,4,2.8
			c1.8,0.6,3.8,1,5.7,1.3c3.8,0.5,7.5,1.1,11.1,2.4c1.9,0.7,3.8,1.4,5.7,2.2c0.8,0.3,1.1,0.7,1,1.2c-0.2,0.6-0.7,0.8-1.5,0.6
			c-1.9-0.5-3.8-1-5.6-1.6c-3.7-1.2-7.4-1.9-11.2-2.6c-1.2-0.2-2.5-0.5-3.7-0.8C240.6,264.1,240.4,264.1,240.2,264z"/>
		<path class="st18" d="M332.4,210c0.4-0.5,0.8-0.9,1.2-1.4c3-3.5,4.7-7.5,5.6-11.9c0.5-2.3,0.8-4.7,1.1-7c0.1-0.3,0.1-0.7,0.2-1
			c0.2-0.4,0.5-0.7,1-0.7c0.5,0,0.9,0.2,1.1,0.7c0.1,0.4,0.2,0.8,0.2,1.2c0.1,3.5-0.2,7-1.4,10.3c0,0.1-0.1,0.2-0.1,0.4
			c0,0,0,0.1,0.1,0.1c0.2-0.3,0.4-0.6,0.6-0.9c1.6-2.5,2.5-5.2,3-8.1c0.7-4.8,1.4-9.5,2.2-14.3c0-0.2,0-0.4,0.1-0.6
			c0.1-0.5,0.5-0.8,1-0.8c0.5,0,1,0.2,1.1,0.8c0.1,0.3,0.1,0.5,0.1,0.8c0,3.2,0,6.5-0.4,9.7c-0.1,0.9-0.3,1.7-0.2,2.6
			c0.1-0.4,0.3-0.7,0.4-1.1c0.6-2.5,1.2-5,1.7-7.5c0.9-4.5,2.4-8.8,4.4-13c0.3-0.6,0.6-1.1,1-1.7c0.2-0.3,0.6-0.5,0.9-0.6
			c0.4-0.1,0.7,0,1,0.3c0.2,0.3,0.2,0.6,0.1,1c0,0.1-0.1,0.1-0.1,0.2c-1.8,2.8-2.6,5.9-3.3,9c-0.5,2.4-1,4.8-1.5,7.2
			c0,0.1,0,0.2,0.1,0.4c0.2-0.3,0.4-0.6,0.5-0.9c1.6-2.9,2.7-6,3.5-9.2c0.1-0.3,0.1-0.5,0.2-0.8c0.4-1,1.1-1.3,2-0.6
			c0.1,0,0.1,0.1,0.3,0.2c0.3-1.2,0.6-2.4,0.8-3.5c0.4-2.2,0.7-4.4,0.9-6.6c0.2-1.6,0.1-3.2,0.1-4.8c0-0.3,0-0.6,0-0.9
			c0.1-0.5,0.4-0.9,0.8-1c0.5-0.1,1,0,1.3,0.5c0.2,0.5,0.4,1,0.5,1.5c0.2,1.4,0.3,2.8,0.5,4.4c0.2-0.3,0.3-0.5,0.3-0.6
			c0.6-1.4,1-2.8,1.1-4.3c0-0.2,0-0.3,0.1-0.5c0.1-0.4,0.3-0.7,0.8-0.6c0.5,0,0.6,0.3,0.7,0.7c0.1,0.3,0.1,0.6,0.1,1.1
			c0.2-0.3,0.3-0.5,0.4-0.6c0.3-0.6,0.6-1.3,0.9-1.9c0.1-0.2,0.2-0.4,0.4-0.5c0.3-0.3,0.6-0.4,1-0.2c0.4,0.2,0.5,0.5,0.5,0.9
			c0,0.2-0.1,0.5-0.2,0.7c-0.7,1.9-1.3,3.7-2,5.6c-0.1,0.3-0.2,0.6-0.3,1c0.3-0.2,0.6-0.2,0.7-0.4c1.8-1.2,3.7-2.3,5.5-3.5
			c0.3-0.2,0.7-0.4,1-0.6c0.5-0.2,1-0.1,1.2,0.3c0.2,0.4,0.2,0.8-0.4,1.2c-1.4,0.9-2.8,1.8-4.2,2.7c-1.1,0.7-2.2,1.4-3.3,2.2
			c-0.3,0.2-0.5,0.4-0.9,0.7c0.4-0.1,0.6-0.1,0.8-0.2c1.9-0.5,3.7-1,5.6-1.4c0.3-0.1,0.7-0.1,1,0c0.4,0.1,0.7,0.3,0.8,0.8
			c0.1,0.4-0.1,0.8-0.5,1c-0.2,0.1-0.4,0.2-0.7,0.3c-2.2,0.7-4.4,1.3-6.7,1.6c-1,0.1-1.8,0.5-2.8,1.1c0.4,0.2,0.7,0.4,1,0.6
			c1.4,0.7,3,0.6,4.5,0.3c1.4-0.3,2.7-0.7,4.1-1.1c0.3-0.1,0.6-0.2,1-0.3c0.7-0.1,1.2,0.2,1.4,0.8c0.1,0.6-0.1,1.1-0.7,1.3
			c-1.3,0.4-2.6,0.8-3.9,1.2c-2.1,0.6-4.3,0.6-6.5,0.6c-0.5,0-1-0.2-1.5-0.3c-0.4-0.1-0.5,0-0.6,0.5c1.5,0.3,3,0.4,4.5,0.4
			c1.2,0,2.3-0.1,3.5-0.2c0.3,0,0.7,0,1,0c0.5,0.1,0.8,0.4,0.9,0.8c0.1,0.5,0,0.9-0.4,1.2c-0.4,0.3-0.8,0.5-1.2,0.6
			c-2.3,0.4-4.6,0.8-7,0.9c-2.8,0.2-2.3,0-4.4,1.7c-0.5,0.4-0.9,0.9-1.3,1.3c-0.1,0.1-0.2,0.2-0.3,0.5c1.3-0.1,2.4-0.3,3.6-0.4
			c2.2-0.2,4.5-0.4,6.7-0.6c0.3,0,0.6,0,0.9,0.2c0.7,0.4,0.6,1.3-0.1,1.7c-0.3,0.2-0.7,0.2-1.1,0.2c-2.4,0.3-4.7,0.6-7.1,1
			c-1.5,0.3-3,0.7-4.5,1.1c-0.2,0.1-0.5,0.2-0.7,0.4c-0.9,1.4-1.8,2.8-2.7,4.2c0,0,0,0.1,0,0.3c3.5-1,7-2,10.5-3.1
			c1.1-0.3,2.2-0.7,3.3-1.1c0.3-0.1,0.7-0.2,1-0.1c0.7,0.2,0.9,0.9,0.4,1.4c-0.2,0.2-0.5,0.3-0.8,0.5c-4,1.7-8,3-12.3,3.6
			c-1.2,0.2-2.4,0.3-3.4,1c-0.6,0.4-1,0.9-1.4,1.6c0.3-0.1,0.5-0.1,0.7-0.2c2.8-0.9,5.7-1.4,8.6-1.8c0.2,0,0.4-0.1,0.5,0
			c0.2,0.2,0.5,0.4,0.6,0.6c0,0.2-0.2,0.6-0.5,0.7c-0.2,0.2-0.6,0.2-0.9,0.2c-1.8,0.4-3.6,0.8-5.3,1.2c-1.5,0.3-2.8,1-4.1,1.7
			c-0.8,0.5-1.6,0.9-2.4,1.4c0.1,0.1,0.1,0.1,0.2,0.1c2.5-0.9,5.1-1,7.6-1.5c1.7-0.3,3.4-0.8,5-1.6c1.6-0.8,3.1-1.6,4.7-2.4
			c0.8-0.4,1.7-0.8,2.5-1.3c0.4-0.2,0.7-0.2,1,0.1c0.3,0.4,0.2,0.7-0.1,1c-0.2,0.3-0.6,0.5-0.9,0.7c-0.7,0.5-1.5,0.9-2.2,1.4
			c-1.9,1.3-3.9,2.3-6,3c-2.3,0.8-4.6,1.5-7,1.9c-0.7,0.1-1.5,0.2-2.2,0.2c-2,0-3.7,0.8-5.4,1.7c-0.8,0.4-1.2,1.1-1.7,1.9
			c1.2-0.3,2.3-0.7,3.3-0.9c3.6-0.7,7.3-1.3,11-1.9c1.1-0.2,2.1-0.3,3.2-0.4c1-0.1,1.5,0.2,1.6,0.8c0.1,0.6-0.3,1.1-1.3,1.3
			c-1.9,0.5-3.8,0.9-5.7,1.3c-3.2,0.6-6.4,0.9-9.4,1.9c-1.2,0.4-2.5,0.8-3.6,1.5c0.3,0,0.6,0,0.8-0.1c4.2-0.7,8.4-1.1,12.6-1
			c0.4,0,0.7,0,1.1,0.1c0.4,0.1,0.7,0.4,0.7,0.9c0,0.5-0.2,0.8-0.7,1c-0.4,0.1-0.9,0.2-1.4,0.3c-6.1,1-12,2.5-17.8,4.3
			c-0.3,0.1-0.6,0.2-0.8,0.4c0.9,0.1,1.7,0.2,2.6,0.2c2.8,0.2,5.5,0.8,8.2,1.5c0.8,0.2,1.2,0.7,1.1,1.3c-0.1,0.6-0.7,0.9-1.5,0.8
			c-3.5-0.4-7-0.9-10.5-0.7c-2,0.1-4.1,0.4-6.1,0.6c-0.1,0-0.2,0.1-0.5,0.2c0.3,0.1,0.5,0.3,0.7,0.3c1.2,0.5,2.5,1,3.7,1.5
			c1.1,0.5,2.3,1,3.4,1.6c1.7,0.9,3.4,1.8,5.1,2.7c0.2,0.1,0.5,0.2,0.7,0.4c0.4,0.3,0.6,0.7,0.4,1.1c-0.2,0.4-0.6,0.7-1.2,0.5
			c-0.3-0.1-0.6-0.2-0.9-0.4c-1.7-0.9-3.4-1.8-5.1-2.7c-2.7-1.4-5.6-2.5-8.7-2.9c-0.9-0.1-1.8-0.2-2.7-0.2c-0.4,0-0.8,0.2-1.1,0.3
			c-1.9,0.9-3.8,1.8-5.9,2.5c-3.6,1.1-7.3,1.2-11,0.8c-0.1,0-0.3,0-0.4-0.1c-0.2-0.1-0.4-0.3-0.4-0.5c0-0.2,0.2-0.4,0.3-0.5
			c0.4-0.1,0.8-0.2,1.3-0.3c0.6,0,1.3,0,1.9,0c3.3,0,6.4-0.6,9.4-1.9c1.6-0.7,3.1-1.5,4.6-2.2c0.7-0.3,1.2-0.8,1.4-1.6
			c0.1-0.4,0.5-0.7,0.7-1.1c0.5-0.9,1.1-1.9,1.6-2.8c1.9-4.2,2.9-8.6,3.7-13.2c0.1-0.6,0.2-1.3,0.3-1.9c0.2-0.8,0.5-1.1,1.2-1
			c0.6,0.1,0.9,0.5,0.9,1.3c0,0.7-0.1,1.4-0.2,2.1c-0.4,2.7-0.9,5.4-1.4,8c-0.3,1.7-1.1,3.4-1.9,4.9c-0.1,0.3-0.3,0.5-0.4,0.8
			C332.3,209.9,332.4,209.9,332.4,210z"/>
		<path class="st18" d="M109.5,259.5c-0.2,0-0.3-0.1-0.5-0.1c-2.6,0-5.1-0.1-7.7-0.1c-0.5,0-0.9,0-1.4,0.2c-3,1.1-5.8,2.7-8.3,4.8
			c-0.3,0.3-0.6,0.5-1,0.7c-0.4,0.2-0.8,0.1-1.1-0.3c-0.3-0.4-0.2-0.7,0.1-1c0.3-0.3,0.6-0.7,1-1c1.6-1.4,3.2-2.7,5.1-3.7
			c0.2-0.1,0.4-0.2,0.5-0.4c0,0,0-0.1,0-0.1c-1.1-0.1-2.2,0-3.3,0.2c-3.5,0.6-6.9,1.6-10.3,2.8c-0.3,0.1-0.5,0.2-0.8,0.2
			c-0.4,0-0.8-0.1-1-0.5c-0.2-0.4,0-0.7,0.3-1c0.2-0.2,0.5-0.3,0.8-0.5c2.2-1.1,4.5-1.9,6.8-2.6c0.4-0.1,0.8-0.3,1.4-0.4
			c-0.3-0.1-0.5-0.2-0.6-0.3c-2.9-1.1-5.7-2.3-8.3-3.8c-0.7-0.4-1.5-0.6-2.3-0.6c-1.9-0.1-3.9-0.2-5.8-0.2c-1,0-1.9-0.1-2.9-0.2
			c-0.1,0-0.2,0-0.4,0c-0.5-0.1-0.8-0.5-0.8-0.9c0-0.4,0.3-0.7,0.8-0.8c0.3-0.1,0.6,0,0.8,0c1.7,0,3.4,0,5.2,0
			c-0.9-0.6-1.6-1.2-2.6-1.5c-0.8-0.2-1.6-0.4-2.3-0.6c-2.6-0.4-4.9-1.4-7.3-2.4c-0.1-0.1-0.3-0.1-0.4-0.2c-0.5-0.3-0.6-0.7-0.5-1.1
			c0.1-0.4,0.6-0.7,1-0.6c0.4,0,0.7,0.1,1.1,0.2c1.2,0.3,2.5,0.7,4,1.1c-0.3-0.3-0.4-0.4-0.5-0.6c-1.3-1.1-2.5-2.3-3.8-3.4
			c-0.4-0.3-0.7-0.5-1.2-0.5c-1.8-0.2-3.7-0.4-5.5-0.8c-0.8-0.1-1.5-0.5-2.3-0.8c-0.4-0.2-0.7-0.5-0.7-1c0.1-0.4,0.4-0.8,1-0.8
			c0.6,0,1.1,0,1.7,0.1c1.2,0.2,2.4,0.4,3.7,0.6c-0.3-0.4-0.5-0.6-0.7-0.8c-1.7-2.2-3.5-4.3-5.2-6.5c-0.6-0.8-1-1.8-1.5-2.8
			c-0.2-0.5-0.1-0.9,0.3-1.1c0.4-0.3,0.8-0.2,1.1,0.1c0.2,0.2,0.4,0.4,0.6,0.6c0.6,0.7,1.2,1.5,1.8,2.2c2,2.7,4.2,5.1,6.6,7.4
			c0.1,0.1,0.2,0.2,0.5,0.4c-0.1-0.7-0.3-1.3-0.4-1.8c-0.4-2.2-0.5-4.4-0.4-6.6c0-0.6,0-1.1,0-1.7c0-0.2,0-0.4,0-0.6
			c0.1-0.5,0.4-0.8,0.8-0.9c0.5,0,0.8,0.3,0.8,0.9c0.2,1.9,0.3,3.8,0.5,5.7c0.2,1.7,0.6,3.4,0.8,5.1c0.1,0.5,0.2,1,0,1.4
			c-0.2,0.6,0.1,0.9,0.5,1.2c1.4,1.1,2.7,2.1,4.1,3.2c0.6,0.5,1.2,0.9,2,1.3c-0.2-0.4-0.3-0.7-0.5-1.1c-1.2-2.6-2.2-5.3-2.8-8.1
			c-0.1-0.6-0.2-1.2-0.3-1.8c-0.1-0.7,0.3-1.1,0.8-1.2c0.5-0.1,0.9,0.2,1,0.9c0.8,4.5,2.6,8.7,4.6,12.8c0.3,0.7,0.7,1.2,1.4,1.5
			c0.5,0.3,1,0.6,1.8,1.1c-0.1-0.4-0.2-0.6-0.3-0.8c-1.4-3.1-2.2-6.3-2.8-9.7c0-0.3-0.1-0.6,0-0.8c0.1-0.5,0.4-0.9,0.9-0.9
			c0.5-0.1,1,0.2,1.1,0.8c0.2,0.7,0.2,1.5,0.4,2.2c0.7,4.3,2.6,8.1,5.7,11.2c1.2,1.2,2.6,2.1,4.3,2.9c-0.2-0.4-0.3-0.5-0.4-0.7
			c-1.6-2.5-2.5-5.2-3.1-8.1c-0.1-0.7-0.1-1.4,0-2.1c0-0.6,0.5-1,1-1.1c0.5,0,0.9,0.3,1,0.9c0.1,0.5,0.2,1,0.4,1.4
			c1,3.7,2.4,7.3,4.5,10.5c0.5,0.7,1,1.1,1.8,1.3c0.8,0.2,1.7,0.5,2.5,0.6c1,0.2,2,0.4,3.2,0.6c-0.3-0.3-0.5-0.5-0.7-0.7
			c-2.1-1.8-3.7-4-4.9-6.5c-0.2-0.4-0.4-0.7-0.5-1.1c-0.1-0.5,0.1-0.9,0.5-1.1c0.4-0.2,0.8-0.1,1.1,0.3c0.2,0.2,0.3,0.5,0.4,0.7
			c2.5,4.5,6.2,7.4,11.1,8.8c0.8,0.2,2,0.2,2.8,0c-0.3-0.2-0.5-0.3-0.7-0.5c-1.8-1-3.3-2.4-4.8-3.8c-0.1-0.1-0.3-0.3-0.3-0.4
			c-0.1-0.3-0.1-0.6,0-0.8c0.2-0.2,0.5-0.4,0.8-0.3c0.3,0,0.5,0.2,0.8,0.4c2.1,1.5,4.4,2.7,6.9,3.4c0.9,0.2,1.9,0.4,2.8,0.4
			c0.5,0,1.1-0.2,1.5-0.4c1.6-1,3.2-2,4.7-3.1c0.3-0.2,0.6-0.4,0.9-0.6c0.5-0.2,0.8,0,1,0.5c0.4,1.4,0.2,2.2-1,3
			c-0.9,0.6-1.9,1.1-2.8,1.6c-0.9,0.5-1.8,1-2.7,1.6c-1.8,1.3-3.6,2.7-5.4,4.1c-1.4,1-2.6,2.1-3.7,3.3c-0.3,0.3-0.6,0.6-0.9,0.8
			c-0.6,0.5-1.1,0.5-1.5,0.2c-0.4-0.3-0.4-0.8-0.1-1.5c1-1.8,2.2-3.4,3.6-4.9c0.2-0.2,0.4-0.3,0.6-0.5
			C109.6,259.7,109.6,259.6,109.5,259.5z"/>
	</g>
	<g>
		<path class="st19" d="M291.1,246.5c0.1,1.8,0.3,3.6,0.4,5.4c0.1,2.1,0.5,4.1,1.2,6.1c0.7,2,1.9,3.7,3.8,4.7
			c0.5,0.3,0.9,0.5,1.4,0.6c0.6,0.2,1.1,0.4,1.2,1c0.2,0.6-0.2,1.1-0.6,1.4c-1.1,1-2.1,2-3.2,3c-1.5,1.5-2.8,3.2-3.7,5.2
			c-0.9,1.9-1.4,3.8-1.4,5.9c0,1.4,0.3,2.6,1,3.8c0.1,0.2,0.2,0.4,0.3,0.6c0.5,0.9,0.2,1.6-0.8,2c-0.8,0.3-1.6,0.5-2.4,0.8
			c-3.5,1.3-6.3,3.4-8.4,6.4c-2,2.8-3.3,5.9-4.3,9.2c-0.1,0.3-0.1,0.7-0.2,1c-0.2,0.6-0.6,1-1.2,1c-0.6,0-1.1-0.5-1.1-1.1
			c0-1,0-1.9,0-2.9c0-2.1,0-4.2-0.4-6.3c-0.3-1.9-1-3.7-2.3-5.2c-1-1.2-1.9-2.4-2.9-3.6c-0.5-0.6-1.2-1.1-1.7-1.7
			c-0.2-0.2-0.5-0.4-0.7-0.6c-0.5-0.6-0.5-1.3,0.1-1.8c0.4-0.4,0.9-0.6,1.4-0.9c3.8-2.7,7.1-5.8,8.7-10.4c1.1-3.2,0.8-6.3-0.8-9.3
			c-0.2-0.4-0.4-0.7-0.6-1.1c-0.4-0.9-0.1-1.6,0.9-1.9c0.7-0.2,1.4-0.4,2.1-0.6c2.8-0.6,5.2-2.1,7.2-4.2c0.9-0.9,1.6-1.8,2.5-2.8
			c0.2-0.2,0.4-0.5,0.6-0.7c0,0.1,0.1,0.2,0.1,0.2c-1.8,4.7-3.1,9.6-4.6,14.5c-1.8,6.1-3.7,12.2-5.6,18.4c-0.2,0.7-0.5,1.3-0.7,2
			c-0.3,0.7,0,1.4,0.6,1.6c0.6,0.3,1.3,0,1.6-0.8c0.5-1.4,1.1-2.9,1.5-4.4c2.4-7.9,4.7-15.9,7.1-23.8c1-3.4,2.4-6.7,3.6-10
			c0.1-0.2,0.2-0.4,0.3-0.6C291,246.5,291.1,246.5,291.1,246.5z"/>
		<path class="st19" d="M301,231c0.7,0.5,1.4,1,2.2,1.4c0.8,0.4,1.6,0.7,2.5,0.6c0.5,0,1-0.2,1.3-0.7c0.3-0.5,0.8-0.8,1.4-0.7
			c0.6,0.1,0.9,0.6,1.1,1.1c0.4,1.8,1,3.4,1.8,5c1.2,2.5,3.4,3.9,5.9,4.8c1,0.4,2.1,0.3,3.1,0c1.6-0.5,3-1.2,4.1-2.5
			c0.2-0.2,0.4-0.5,0.7-0.6c0.5-0.3,1-0.4,1.5-0.1c0.5,0.3,0.7,0.7,0.7,1.3c-0.1,1.3-0.2,2.7-0.1,4c0.3,4.9,1.4,9.5,3.9,13.8
			c0.8,1.5,1.8,2.8,3.1,3.8c0.2,0.2,0.4,0.4,0.6,0.6c0.4,0.5,0.5,1,0.2,1.4c-0.3,0.4-0.9,0.6-1.4,0.3c-0.5-0.3-1-0.7-1.4-1
			c-1.1-0.9-2.1-1.8-3.2-2.6c-2-1.4-4.2-2.7-6.6-3.3c-3.8-1-7.5-0.7-11,1.4c-0.2,0.1-0.3,0.2-0.5,0.3c-1,0.4-1.7,0-1.9-1
			c-0.2-1.4-0.3-2.8-0.5-4.1c-0.1-0.7-0.3-1.4-0.5-2.1c-0.8-2.7-2.7-4.1-5.5-4.6c-1.6-0.2-3.2,0-4.8,0.3c-0.4,0.1-0.8,0.1-1.2,0
			c-0.8-0.2-1-0.9-0.5-1.5c0.3-0.4,0.6-0.7,1-1c1.4-1.3,2.1-2.9,2.6-4.6c0.3-1.2,0.1-2.5-0.1-3.8c-0.1-1.3-0.5-2.5-0.7-3.8
			c-0.1-0.3-0.1-0.7-0.1-1c0.1,0.1,0.3,0.3,0.4,0.4c4.1,6.5,9.6,11.6,16.1,15.6c2,1.2,4,2.4,6,3.5c0.9,0.5,1.6,0.4,1.9-0.2
			c0.3-0.5,0.2-1.3-0.7-1.8c-2.1-1.2-4.2-2.4-6.3-3.7c-5.7-3.6-10.6-8.1-14.4-13.7C301.3,231.7,301.1,231.4,301,231
			C300.9,231,300.9,231,301,231z"/>
	</g>
	<g>
		<path class="st19" d="M164.7,255.8c1.1,0.2,2.1,0.4,3.1,0.5c5.4,0.8,10.7,2,16,3.4c1.9,0.5,3.7,1,5.5,1.5c0.7,0.2,1.2-0.1,1.4-0.7
			c0.2-0.6,0-1.2-0.6-1.5c-0.2-0.1-0.5-0.2-0.8-0.3c-5.6-1.5-11.1-2.9-16.8-4c-1.7-0.3-3.4-0.6-5-0.8c-0.3,0-0.6-0.1-1-0.2
			c0.2-0.2,0.3-0.3,0.4-0.3c1.5-0.7,2.7-1.8,3.6-3.1c0.8-1.1,1.4-2.3,2.1-3.4c0.2-0.3,0.3-0.6,0.4-0.8c0.5-0.8,1.4-0.8,1.9-0.1
			c0.3,0.4,0.6,0.8,0.8,1.2c1.3,2.3,5,3.7,7.8,2.5c1-0.4,1.9-1,2.9-1.5c0.2-0.1,0.5-0.3,0.7-0.5c1-0.6,1.9-0.1,2,1
			c0,0.6,0,1.1,0,1.7c0,0.7,0.1,1.4,0.2,2c0.3,1.7,1.3,3,2.8,4c2.6,1.8,5.4,3.1,8.5,3.7c0.9,0.2,1.8,0.4,2.6,0.6
			c0.2,0,0.4,0.1,0.5,0.1c0.6,0.2,1,0.7,0.9,1.2c-0.1,0.6-0.5,1-1.2,1c-2.6,0.2-5.1,0.5-7.7,0.8c-0.9,0.1-1.8,0.3-2.7,0.6
			c-2.2,0.7-4,2-5.4,3.9c-0.6,0.8-1.1,1.5-1.7,2.3c-0.2,0.2-0.4,0.5-0.6,0.7c-0.6,0.5-1.5,0.4-1.9-0.3c0-0.1-0.1-0.1-0.1-0.2
			c-1.7-3.9-5-5.5-9-6.1c-2-0.3-3.9,0.3-5.7,1.2c-0.4,0.2-0.9,0.5-1.3,0.7c-1,0.4-1.8-0.2-1.6-1.3c0.1-0.6,0.2-1.3,0.3-1.9
			c0.2-2.5-0.4-4.8-1.2-7.2C164.9,256.3,164.8,256.1,164.7,255.8z"/>
		<path class="st19" d="M148.5,258.9c-0.2,0.3-0.3,0.4-0.4,0.5c-2.2,1.7-3.9,3.8-5.5,6c-3.4,4.7-6.5,9.5-8.9,14.8
			c-0.5,1.1-0.9,2.2-1.3,3.4c-0.3,0.8,0,1.5,0.6,1.7c0.7,0.3,1.3-0.1,1.6-1c0.4-1,0.7-2.1,1.2-3.1c1.6-3.4,3.4-6.7,5.5-9.9
			c1.7-2.5,3.3-5,5.3-7.2c0.1-0.1,0.2-0.3,0.5-0.6c-0.1,0.4-0.1,0.6-0.1,0.7c-0.4,1.4-0.4,2.9,0.1,4.3c0.4,1.2,1.1,2.2,2.2,2.8
			c0.1,0.1,0.3,0.2,0.4,0.3c0.8,0.6,0.8,1.5-0.1,2.1c-0.1,0.1-0.3,0.1-0.4,0.2c-3.8,1.9-6.5,4.9-8.2,8.7c-1.1,2.4-1.2,4.9-0.1,7.4
			c0.3,0.6,0.6,1.3,1.3,1.7c0.6,0.4,0.6,0.9,0.4,1.4c-0.3,0.4-0.8,0.6-1.4,0.4c-0.2-0.1-0.4-0.2-0.6-0.3c-2.3-1.2-4.7-1.6-7.3-1.3
			c-3.1,0.4-6,1-8.7,2.6c-0.5,0.3-1,0.6-1.5,0.9c-0.3,0.2-0.7,0.4-1.1,0.3c-0.6-0.2-0.9-0.8-0.6-1.4c0.2-0.3,0.4-0.6,0.7-0.9
			c1.7-1.9,3.3-3.9,4.6-6c1-1.5,1.8-3.2,2-5c0.1-2.2-0.3-4.2-1.9-5.9c-0.3-0.3-0.6-0.6-0.8-1c-0.5-0.7-0.3-1.5,0.5-1.9
			c0.3-0.2,0.6-0.2,0.9-0.4c1.3-0.6,2.7-1,3.9-1.7c3.6-2.1,5.4-5.4,5.5-9.5c0-0.9-0.2-1.9-0.4-2.8c0-0.3-0.1-0.6-0.1-0.8
			c0.1-0.7,0.7-1.1,1.4-0.9c0.3,0.1,0.5,0.2,0.8,0.4c0.6,0.4,1.2,0.7,1.8,1.1c2,1.3,4,1.4,6.2,0.7
			C147,259.4,147.7,259.2,148.5,258.9z"/>
		<path class="st20" d="M148.8,256.6c-1.9-0.1-3.6-0.8-5.1-2.1c-1.2-1-1.5-2.5-1.5-4c0-1.3,0.3-2.6,0.9-3.8c0.5-1.1,1.3-1.9,2.4-2.3
			c0.9-0.4,1.8-0.6,2.7-0.8c1-0.2,2,0.1,2.8,0.6c2,1.2,3.1,3.1,3.8,5.2c0.3,0.8,0.2,1.5-0.1,2.3c-0.2,0.5-0.5,1.1-0.8,1.6
			c-0.5,0.7-1.1,1.5-1.7,2.1C151.3,256.3,150.2,256.6,148.8,256.6z"/>
		<path class="st20" d="M152.3,261.4c0-2.8,2.3-5.4,5-5.6c1.8-0.1,3.2,0.7,4.1,2.2c1.4,2.1,1.3,4-0.2,6c-1,1.3-2.2,2.2-3.9,2.3
			C154.4,266.5,152.3,264.4,152.3,261.4z"/>
		<path class="st20" d="M156,247.9c0-1.8,0.6-3,1.9-3.8c2.2-1.5,4.4-1.4,6.4,0.2c1.7,1.3,2.1,3.3,1,5.1c-0.8,1.4-2.1,2.4-3.6,3
			c-1.1,0.4-2.2,0.3-3.3-0.1c-1.1-0.4-1.7-1.3-2-2.4C156.2,249.2,156.1,248.4,156,247.9z"/>
	</g>
	<g>
		<g>
			<path class="st1" d="M322.4,182.6c-0.7-4.5-1.9-8.8-3.2-13.1c-1.9-6.3-4.5-12.2-7.4-18.1c-1.4-2.9-3.3-5.4-5.8-7.5
				c-2.5-2-5.3-3-8.4-3.1c-1.2,0-2.4,0-3.5,0.1c-1.8,0.2-3.5,0.4-5.3,0.6c-3.5,0.5-7,0.9-10.5,1.4c-2.4,0.4-4.8,0.8-7.2,1.1
				c-4,0.5-8,0.9-12,1.4c-3,0.3-6,0.7-8.9,1c-2.5,0.3-4.9,0.4-7.4,0.7c-2.9,0.3-5.9,0.7-8.8,1c-6.3,0.5-12.5,1-18.8,1.5
				c-5.4,0.5-10.7,1-16.1,1.6c-4.3,0.4-8.7,0.9-13,1.4c-3.9,0.5-7.7,1-11.6,1.6c-3.6,0.5-7.2,1-10.9,1.4c-3,0.4-6,0.6-9,1
				c-4.1,0.5-8.3,1.1-12.4,1.8c-5,0.8-10.1,1.5-15.1,2.5c-10.3,2-20.5,4.5-30.6,7.4c-2.9,0.8-5.6,2.1-8.2,3.5
				c-1.4,0.7-2.6,1.6-3.4,2.9c-0.8,1.2-1.5,2.4-2.3,3.6c-1.2,2.1-2.3,4.4-2.8,6.8c-0.7,3.1-1,6.3-1.1,9.5c0,1.7,0,3.3,0,5
				c0,3.9,0.1,7.9,0.9,11.7c1,4.7,2.1,9.4,3.7,13.9c2.7,7.4,7,13.8,13,18.9c3.6,3.1,7.8,4.9,12.7,4.7c2.3-0.1,4.4-0.5,6.4-1.6
				c0.4-0.2,0.8-0.3,1.2-0.4c2.1-0.4,4.1-0.8,6.2-1.1c3.6-0.6,7.1-1.2,10.7-2c8.8-1.9,17.6-4.1,26.5-5.7c5-1,10-2.1,15.1-3.1
				c7.2-1.4,14.3-2.7,21.5-4c4.5-0.8,9.1-1.6,13.6-2.3c4.3-0.7,8.7-1.4,13-2.1c3.1-0.5,6.2-1,9.3-1.5c3.8-13.8,18.3-33.5,27-42.7
				c6.1-6.4,19.9-3.4,27.7-1.8c7.8,1.6,27,12.8,23.6,21.6c-1.8,4.6-3.2,8.6-4.3,12c0.6-0.1,1.1-0.2,1.7-0.3
				c4.3-0.7,8.5-1.5,12.6-2.9c0.8-0.3,1.3-0.7,1.4-1.6c0.1-0.3,0.1-0.6,0.1-0.9c0.2-1.5,0.3-3.1,0.4-4.6c0.1-0.6,0.2-1.2,0.2-1.8
				c0.1-3.3,0.2-6.7,0.2-10C323.2,188.9,322.8,185.7,322.4,182.6z M120,231c-0.2,2.7-0.7,5.3-1.5,7.8c-0.5,1.7-1.3,3.2-2.4,4.6
				c-1.6,1.9-3.8,2.7-6.2,3c-4.6,0.6-8.6-1.1-12.1-4c-5.5-4.5-9.4-10.2-11.9-16.8c-1.8-4.7-3.1-9.5-4.1-14.4
				c-0.7-3.4-0.8-6.9-1-11.3c0.1-1.6,0.1-4.1,0.2-6.6c0.2-2.5,0.5-4.9,1.1-7.3c0.6-2.3,1.6-4.5,2.9-6.5c0.5-0.8,1-1.5,1.5-2.2
				c1.4-2.3,3.6-3.4,6-4.1c3.1-0.9,6,0,8.7,1.6c1.2,0.7,2.3,1.5,3.4,2.2c0.3,0.2,0.7,0.6,1,0.9c4.2,4.6,7.1,9.9,9.2,15.6
				c1.6,4.4,2.6,9,3.3,13.7c0.6,4.1,1.2,8.3,1.6,12.4C120.2,223.3,120.2,227.1,120,231z"/>
			<path class="st4" d="M119.8,219.5c-0.4-4.1-1-8.3-1.6-12.4c-0.7-4.6-1.7-9.2-3.3-13.7c-2.1-5.8-5-11.1-9.2-15.6
				c-0.3-0.3-0.6-0.6-1-0.9c-1.1-0.8-2.3-1.5-3.4-2.2c-2.7-1.6-5.5-2.5-8.7-1.6c-2.5,0.7-4.7,1.8-6,4.1c-0.5,0.8-1,1.5-1.5,2.2
				c-1.3,2-2.3,4.2-2.9,6.5c-0.6,2.4-0.9,4.9-1.1,7.3c-0.2,2.5-0.2,5-0.2,6.6c0.2,4.4,0.2,7.9,1,11.3c1,4.9,2.3,9.7,4.1,14.4
				c2.5,6.6,6.4,12.3,11.9,16.8c3.5,2.9,7.4,4.6,12.1,4c2.4-0.3,4.5-1.1,6.2-3c1.2-1.3,1.9-2.9,2.4-4.6c0.8-2.5,1.4-5.2,1.5-7.8
				C120.2,227.1,120.2,223.3,119.8,219.5z M113.3,223.6c-0.3,1-0.8,1.9-1.5,2.8c-2.3,2.8-5.7,3.4-8.9,1.7c-1.2-0.7-2.3-1.5-3.1-2.6
				c-0.8-1.1-1.7-2.2-2.3-3.3c-2.2-4.2-3.5-8.6-3.5-13.4c0-1.3,0.2-2.6,0.7-3.8c1.4-3.6,4.9-4.3,7.6-1.5c2.5,2.7,3.3,6,3,9.7
				c0,0.5-0.2,1-0.7,1.4c-0.3,0.3-0.7,0.3-1,0.1c-0.3-0.2-0.4-0.6-0.3-0.9c0.6-1.2,0.4-2.5,0.1-3.7c-0.2-1.1-0.6-2.2-1.1-3.3
				c-0.4-0.9-1-1.7-1.9-2.2c-1.2-0.7-1.9-0.5-2.4,0.8c-0.4,1-0.5,2.1-0.4,3.2c0.3,3.9,1.5,7.6,3.2,11.1c0.7,1.4,1.6,2.7,2.7,3.8
				c0.6,0.6,1.3,1.2,2.2,1.4c0.8,0.2,1.5,0,2-0.5c0.6-0.5,0.9-1.1,1.1-1.9c1.1-3.6,1.4-7.3,1-11.1c-0.6-5.2-1.9-10.2-3.9-15
				c-0.9-2.2-1.9-4.4-3.3-6.3c-0.7-1-1.6-2-2.5-2.9c-1-1-2.4-1.4-3.9-1.5c-1.3-0.1-2.3,0.4-3,1.5c-0.6,0.9-1.1,1.9-1.5,2.9
				c-1,2.5-1.4,5-1.7,7.7c-0.2,2.5-0.3,5.1-0.5,7.6c-0.1,4.6,0.2,9.2,1.2,13.6c1,4.5,2.7,8.7,5.1,12.7c1.8,3.1,4.4,5.6,7.2,7.7
				c0.6,0.5,1.3,0.8,2,1.1c1.4,0.7,2.8,0.7,4.2,0.3c0.3-0.1,0.5-0.2,0.8-0.2c0.4-0.1,0.7,0.1,0.9,0.5c0.2,0.4,0.1,0.8-0.2,1
				c-0.5,0.4-1,0.7-1.6,0.9c-1.4,0.5-2.8,0.5-4.2,0c-1.8-0.5-3.5-1.4-4.8-2.7c-1.7-1.6-3.4-3.2-5-5c-0.9-1-1.7-2.1-2.4-3.3
				c-3.5-6.1-5.7-12.6-6.8-19.5c-0.9-5.6-0.9-11.2-0.5-16.8c0.3-3.2,0.9-6.3,2.4-9.2c0.4-0.8,0.8-1.6,1.4-2.3c2-2.6,4.7-3.7,8-3.2
				c2.3,0.3,4.3,1.3,6,3c1.8,1.8,3.1,3.8,4.3,6c3.7,6.9,6.1,14.2,6.8,22C114.9,215.8,114.6,219.8,113.3,223.6z"/>
			<path class="st1" d="M89.7,205.2c-0.1,4.6,0.2,9.2,1.2,13.6c1,4.5,2.7,8.7,5.1,12.7c1.8,3.1,4.4,5.6,7.2,7.7
				c0.6,0.5,1.3,0.8,2,1.1c1.4,0.7,2.8,0.7,4.2,0.3c0.3-0.1,0.5-0.2,0.8-0.2c0.4-0.1,0.7,0.1,0.9,0.5c0.2,0.4,0.1,0.8-0.2,1
				c-0.5,0.4-1,0.7-1.6,0.9c-1.4,0.5-2.8,0.5-4.2,0c-1.8-0.5-3.5-1.4-4.8-2.7c-1.7-1.6-3.4-3.2-5-5c-0.9-1-1.7-2.1-2.4-3.3
				c-3.5-6.1-5.7-12.6-6.8-19.5c-0.9-5.6-0.9-11.2-0.5-16.8c0.3-3.2,0.9-6.3,2.4-9.2c0.4-0.8,0.8-1.6,1.4-2.3c2-2.6,4.7-3.7,8-3.2
				c2.3,0.3,4.3,1.3,5.9,3c1.8,1.8,3.1,3.8,4.3,6c3.7,6.9,6.1,14.2,6.8,22c0.4,4,0,7.9-1.2,11.7c-0.3,1-0.8,1.9-1.5,2.8
				c-2.3,2.8-5.7,3.4-8.9,1.7c-1.2-0.7-2.3-1.5-3.1-2.6c-0.8-1.1-1.7-2.2-2.3-3.3c-2.2-4.2-3.5-8.6-3.5-13.4c0-1.3,0.2-2.6,0.7-3.8
				c1.4-3.6,4.9-4.3,7.6-1.5c2.5,2.7,3.3,6.1,3,9.7c0,0.5-0.2,1-0.7,1.4c-0.3,0.3-0.7,0.3-1,0.1c-0.3-0.2-0.4-0.6-0.3-0.9
				c0.5-1.2,0.4-2.5,0.1-3.7c-0.2-1.1-0.6-2.2-1.1-3.3c-0.4-0.9-1-1.7-1.9-2.2c-1.2-0.7-1.9-0.5-2.4,0.8c-0.4,1-0.5,2.1-0.4,3.2
				c0.3,3.9,1.5,7.6,3.2,11.1c0.7,1.4,1.6,2.7,2.7,3.8c0.6,0.6,1.3,1.2,2.2,1.4c0.8,0.2,1.5,0,2-0.5c0.5-0.5,0.9-1.2,1.1-1.9
				c1.1-3.6,1.4-7.3,1-11.1c-0.6-5.2-1.9-10.2-3.9-15c-0.9-2.2-1.9-4.4-3.3-6.3c-0.7-1-1.6-2-2.5-2.9c-1-1.1-2.4-1.4-3.9-1.5
				c-1.3-0.1-2.3,0.4-3,1.5c-0.6,0.9-1.1,1.9-1.6,2.9c-1,2.5-1.4,5-1.6,7.7C90,200.1,89.9,202.6,89.7,205.2z"/>
			<path class="st4" d="M161.9,174.6c0.5,3.8,0.9,7.6,0.9,11.4c0,0.9-0.1,1.7-0.6,2.6c-0.8,1.5-2.8,2.1-5,1.5
				c-0.7-0.2-1.5-0.5-2-0.9c-1.3-0.8-2.5-1.7-3.6-2.6c-2.9-2.5-5.6-4.9-8.4-7.4c-2.2-1.9-4-4-5.7-6.2c-0.5-0.6-1.1-1.3-1.7-1.9
				c-0.9-0.9-2-1.6-3.4-2.1c-2.1-0.8-4.9-0.2-5.9,1.3c-0.2,0.3-0.1,0.6-0.2,0.8c0,0.1-0.2,0.4-0.3,0.4c-0.2,0-0.6-0.1-0.7-0.2
				c-0.3-0.2-0.3-0.5-0.2-0.8c0.7-1.8,4.2-3.9,7.8-3.8c1.2,0.1,2.3,0.3,3.1,0.9c0.9,0.6,1.8,1.3,2.5,2c1.9,1.9,4.2,3.6,6.8,5.1
				c0.9,0.5,1.9,0.9,2.9,1.3c0.5,0.2,1.2,0.3,1.8,0.5c0.8,0.1,1.1,0,1.5-0.5c0.7-1,1-2,1.1-3.1c0.2-1.6,0.4-3.2,0.7-4.8
				c0.1-0.5,0.3-1,0.6-1.4c1.4-2.7,4.4-4.2,8.6-4.8c1.2-0.2,2.4,0,3.5,0.2c1.9,0.5,3.7,1.1,5.3,1.9c2,1,3.9,2,5.8,3
				c1.4,0.7,2.9,1.5,4.4,2.2c1.4,0.7,3,1.1,4.7,1.3c0.6,0.1,1.2,0.1,1.8,0c1.3-0.1,2.3-0.6,2.8-1.4c0.6-0.9,0.9-1.9,1.1-3
				c0.2-1.3,0.5-2.5,0.8-3.8c0.1-0.2,0.2-0.5,0.3-0.7c1.5-3,5.7-4.7,10.5-4c2.1,0.3,4.1,0.8,5.8,1.7c1.5,0.7,2.9,1.5,4.3,2.3
				c1.6,0.9,3,1.9,4.6,2.8c1.2,0.7,2.5,1.4,4,1.8c0.6,0.2,1.2,0.3,1.8,0.4c0.5,0.1,0.8,0,1-0.4c0.1-0.2,0.3-0.5,0.3-0.7
				c0.3-1.4,0.6-2.8,1-4.1c0.4-1.5,1.1-2.9,2.4-4.3c1.7-1.8,4.2-2.9,7.3-3.4c3.8-0.7,7.5-0.3,11,0.6c3.7,0.9,7.3,2,10.7,3.3
				c2.3,0.9,4.5,1.8,7.1,2.3c1,0.2,2,0.4,3,0.5c1.1,0.1,1.4,0,1.5-0.7c0.2-0.9,0.3-1.9,0.3-2.8c0-1.6,0.1-3.2,0.8-4.8
				c0.3-0.7,0.7-1.4,1.4-2c0.6-0.5,1.4-0.9,2.3-1c0.3,0,0.6-0.2,0.8-0.3c0.5-0.2,1.1-0.1,1.4,0.2c0.3,0.3,0.2,0.7-0.3,1
				c-0.2,0.1-0.3,0.1-0.5,0.2c-1,0.3-1.5,0.7-1.4,1.4c0.1,0.9,0.3,1.7,0.6,2.5c0.7,1.5,1.5,3,2.2,4.6c0.5,1,0.9,2.1,1.3,3.2
				c0.3,0.9,0.1,1.7-0.3,2.6c-0.7,1.4-2.4,2.1-4.6,2.3c-2.2,0.2-4.2,0-6.3-0.4c-2.6-0.5-5-1.4-7.4-2.2c-3.2-1.1-6.4-2.2-9.7-3.3
				c-2.2-0.7-4.6-1.1-7-1.2c-3.2-0.1-6.1,0.4-8,2.3c-1.1,1-1.8,2.2-1.7,3.4c0.1,1.5,0.3,3,0.4,4.6c0.2,1.7,0.5,3.3,0.1,5
				c-0.1,0.5-0.3,1-0.6,1.5c-1,1.7-3.6,2.7-6.4,2.4c-1.9-0.2-3.6-0.7-5.1-1.4c-1.6-0.8-3.1-1.6-4.5-2.5c-2.1-1.4-4.1-2.9-6.1-4.3
				c-0.9-0.6-1.8-1.2-2.8-1.7c-0.8-0.4-1.7-0.7-2.7-0.8c-2.1-0.2-3.5,0.3-4.1,1.7c-0.6,1.3-0.6,2.5-0.3,3.8c0.4,2,0.8,4,1.2,6
				c0.2,1,0.1,2-0.2,3c-0.1,0.3-0.2,0.5-0.4,0.8c-0.6,0.9-1.8,1.4-3.3,1.2c-1.1-0.1-2.1-0.3-3.1-0.6c-2.6-0.7-4.9-1.7-7.2-2.7
				c-5.7-2.6-10.7-5.6-15.6-8.8c-1.5-1-3-1.9-4.8-2.6c-0.7-0.3-1.5-0.5-2.3-0.7c-1-0.2-1.8,0-2.3,0.6c-0.3,0.4-0.5,0.7-0.6,1.1
				C161.9,172.4,161.8,173.5,161.9,174.6z"/>
		</g>
		<g>
			<path class="st1" d="M307,198.7c-1.4-2.1-3-4.1-5-5.8c-4.4-3.7-9.4-7-14.9-8.8c-3.1-1-5.4-2-9.2-2c-1.9,0-3.9-0.1-5.8,0
				c-3.2,0.2-6.3,0.7-9.3,1.8c-1.7,0.6-3.4,2.7-4.6,4.3c-3.8,5.5-7.7,10.9-11.5,16.3c-0.5,0.7-1,1.4-1.5,2.1
				c-1.9,2.3-3.7,4.7-5.3,7.2c-2.3,3.6-3.7,7.5-4.3,11.1c-0.2,0.9-0.2,1.8-0.3,2.7c0,1.2,0,2.3,0.1,3.3c0.1,1.7,0.3,3.1,0.6,4.4
				c0.6,3,1.7,5.8,3.9,8c2.5,2.6,5.5,4.5,9,5.6c1.1,0.4,2.2,0.7,3.3,1.1c3.5,1.2,7,2,10.7,2.3c4.2,0.3,8.3-0.1,12.2-1.7
				c4.5-1.8,8.5-4.3,12-7.7c1.4-1.3,2.7-2.8,3.6-4.4c0.9-1.6,1.8-3.2,2.6-4.9c1.1-2.2,2.1-4.4,3.2-6.6c1-2,2.1-4,3.3-6
				c0.2-0.4,0.5-0.8,0.7-1.3c0.7-1.6,1.4-3.2,2.2-4.8c0.4-0.9,0.9-1.9,1.3-2.8c1.4-2.9,2-6.2,3.4-9.1
				C308.1,201.8,308,200.1,307,198.7z M287,232.2c-0.4,3.1-1.9,5.7-3.5,8.2c-3.1,5-7.8,7.5-13.4,8.8c-2.2,0.5-4.4,0.6-6.7,0.6
				c-1.8-0.1-3.6-0.2-5.3-0.4c-0.8-0.1-1.6-0.3-2.4-0.6c-2.2-0.7-4.5-1.4-6.6-2.4c-2-0.9-4-2.1-5.7-3.4c-2.9-2.2-4.5-5.3-5.1-8.8
				c-0.2-1.1-0.4-2.2-0.5-3.3c-0.1-1.3-0.1-2.6,0-3.9c0.1-0.8,0.2-1.6,0.3-2.4c0.3-1.6,0.8-3.1,1.5-4.5c0.9-1.8,1.9-3.7,3.5-5.1
				c1.9-1.7,4-3,6.5-3.7c2.8-0.7,5.6-1.1,8.4-1.3c1.2-0.1,2.4,0.2,3.6,0.4c4.9,0.8,9.3,2.8,13.5,5.3c1.6,1,3.1,2,4.6,3.1
				c0.5,0.4,1,0.7,1.6,1.1c0.9,0.6,1.6,1.4,2.2,2.3c1.1,1.7,2.1,3.5,2.9,5.3c0.1,0.2,0.2,0.4,0.2,0.6
				C287.2,229.5,287.2,230.8,287,232.2z"/>
			<path class="st4" d="M286.8,228.2c-0.1-0.2-0.1-0.4-0.2-0.6c-0.8-1.9-1.8-3.7-2.9-5.3c-0.6-0.9-1.3-1.7-2.2-2.3
				c-0.5-0.4-1.1-0.7-1.6-1.1c-1.5-1.1-3-2.1-4.6-3.1c-4.2-2.6-8.6-4.6-13.5-5.3c-1.2-0.2-2.4-0.5-3.6-0.4c-2.8,0.2-5.6,0.6-8.4,1.3
				c-2.5,0.7-4.6,2-6.5,3.7c-1.6,1.4-2.6,3.3-3.5,5.1c-0.7,1.4-1.2,3-1.5,4.5c-0.2,0.8-0.3,1.6-0.3,2.4c-0.1,1.3-0.1,2.6,0,3.9
				c0.1,1.1,0.2,2.2,0.5,3.3c0.7,3.5,2.2,6.6,5.1,8.8c1.8,1.3,3.7,2.5,5.7,3.4c2.1,1,4.4,1.6,6.6,2.4c0.8,0.3,1.6,0.5,2.4,0.6
				c1.8,0.2,3.6,0.3,5.3,0.4c2.2-0.1,4.5-0.1,6.7-0.6c5.6-1.2,10.3-3.8,13.4-8.8c1.6-2.5,3.1-5.1,3.5-8.2
				C287.2,230.8,287.2,229.5,286.8,228.2z M277.7,238.9c-1.1,0.9-2.2,1.8-3.4,2.6c-2.9,2.1-6.3,3.1-9.8,3.4c-6,0.6-11.3-1-16.3-4.3
				c-3.6-2.3-5.5-5.7-6-9.9v0c-0.2-1.2-0.1-2.4,0.2-3.5c0.1-0.3,0.2-0.6,0.3-1c0.1-0.3,0.2-0.5,0.3-0.8c0-0.1,0-0.1,0.1-0.2
				c0.1-0.3,0.3-0.6,0.4-0.9c0.1-0.3,0.3-0.6,0.5-0.8c0.1-0.2,0.2-0.4,0.4-0.6c0.1-0.2,0.3-0.4,0.4-0.6c0.2-0.3,0.5-0.6,0.8-0.9
				c0.1-0.1,0.2-0.2,0.4-0.4c0.6-0.6,1.2-1.1,2-1.6c3.8-2.5,8-3.9,12.6-4c2.8-0.1,5.5,0.3,8.1,1.2c0.3,0.1,0.5,0.2,0.8,0.3
				c0,0,0.1,0,0.1,0.1c0.2,0.1,0.5,0.2,0.7,0.3c0.3,0.1,0.5,0.3,0.8,0.4c0.7,0.4,1.3,0.9,1.9,1.4c0.1,0.1,0.3,0.2,0.4,0.3
				c0.1,0,0.1,0.1,0.2,0.1h0c0.3,0.3,0.6,0.6,0.9,0.9c1.7,1.9,2.2,4,1.6,6.5c-0.1,0.3-0.2,0.6-0.2,0.9c-0.1,0.4-0.3,0.7-0.4,1.1
				c0,0,0,0,0,0.1c-0.1,0.3-0.2,0.5-0.4,0.8c0,0.1-0.1,0.2-0.1,0.2c-0.1,0.2-0.3,0.5-0.5,0.7c-0.2,0.2-0.3,0.5-0.5,0.7
				c-0.1,0.1-0.2,0.2-0.3,0.3c-0.2,0.2-0.4,0.4-0.6,0.6c0,0,0,0-0.1,0.1c-0.2,0.2-0.5,0.4-0.7,0.6c0,0-0.1,0-0.1,0.1
				c-0.2,0.2-0.5,0.4-0.8,0.5c0,0-0.1,0-0.1,0.1c-0.3,0.2-0.6,0.3-0.9,0.5c0,0,0,0,0,0c-0.3,0.2-0.7,0.3-1,0.4
				c-4.9,1.9-9.6,1.5-14.2-1.1c-0.1-0.1-0.2-0.1-0.3-0.2c-0.1,0-0.1-0.1-0.2-0.1c-0.1-0.1-0.2-0.2-0.3-0.2c-0.5-0.5-0.9-1.1-1.3-1.7
				c-0.1-0.2-0.2-0.3-0.2-0.5c-0.1-0.2-0.1-0.3-0.2-0.5c-0.1-0.2-0.1-0.4-0.2-0.6c0-0.2-0.1-0.4-0.1-0.6c0-0.2-0.1-0.4-0.1-0.6
				c0-0.2,0-0.4,0-0.6c0-0.2,0-0.4,0-0.6c0.1-0.6,0.2-1.1,0.4-1.6c0.6-1.3,1.4-2.2,2.7-2.7c2.4-1,4.8-1.1,7.2-0.3
				c1.2,0.4,2.1,1.1,2.7,2.2c1,1.9,0.1,4.2-2,4.6c-0.4,0.1-1,0-1.4-0.1c-0.2,0-0.4-0.4-0.4-0.6c0-0.2,0.2-0.5,0.4-0.7
				c0.3-0.2,0.7-0.2,1.2-0.4c-0.1-0.5-0.2-0.9-0.2-1.2c-0.1-0.6-0.5-1-1-1.3c-1.6-0.7-4.5,0-5.7,1.2c-0.1,0.1-0.1,0.2-0.2,0.2
				c-0.2,0.2-0.4,0.5-0.5,0.8c-0.1,0.1-0.1,0.3-0.1,0.4c-0.1,0.4-0.2,0.8-0.1,1.2c0,0,0,0,0,0c0,0.2,0.1,0.4,0.1,0.6
				c0,0.1,0.1,0.2,0.1,0.3c0,0.1,0.1,0.2,0.2,0.3c0.1,0.1,0.1,0.2,0.2,0.3c0.2,0.2,0.4,0.5,0.6,0.6c1.2,0.9,2.5,1.5,3.9,1.8
				c2.8,0.5,5.5,0.2,8.1-0.6c1.5-0.5,2.7-1.4,3.4-2.8c0.1-0.2,0.2-0.4,0.2-0.5c0.1-0.2,0.1-0.3,0.2-0.5c0-0.1,0.1-0.2,0.1-0.4
				c0.3-1.4-0.1-2.7-0.7-4.1c-0.6-1.2-1.4-2.1-2.5-2.8c-0.3-0.2-0.6-0.4-0.9-0.6c-0.3-0.1-0.5-0.3-0.8-0.4c-0.2-0.1-0.4-0.2-0.6-0.3
				c-0.1,0-0.2-0.1-0.2-0.1c-0.2-0.1-0.3-0.1-0.4-0.2c-0.3-0.1-0.5-0.2-0.8-0.3c0,0,0,0,0,0c-0.3-0.1-0.6-0.2-0.9-0.2
				c-0.1,0-0.1,0-0.2,0c-0.3-0.1-0.6-0.1-0.9-0.1c0,0-0.1,0-0.1,0c-0.2,0-0.4-0.1-0.6-0.1c-0.2,0-0.3,0-0.5,0c-0.4,0-0.9,0-1.3,0
				c-2.3,0.1-4.6,0.4-6.8,1c-1.7,0.5-3.2,1.2-4.6,2.3c-0.2,0.2-0.5,0.4-0.7,0.6c-0.1,0.1-0.2,0.2-0.4,0.3c-0.4,0.4-0.7,0.8-1,1.2
				c-0.1,0.1-0.1,0.2-0.2,0.3c-0.3,0.4-0.5,0.9-0.7,1.3c-0.1,0.3-0.2,0.6-0.3,0.9c-0.1,0.2-0.1,0.4-0.1,0.5c0,0.2-0.1,0.3-0.1,0.5
				c0,0.1,0,0.2,0,0.3c0,0.1,0,0.2,0,0.3c0,0.3,0,0.7,0,1c0,0.3,0,0.6,0,0.8c0,0.2,0,0.4,0,0.6c0.2,2.1,1.2,3.7,2.7,5.1
				c3.1,2.9,6.9,4.6,11.1,5.1c1.8,0.2,3.7,0.5,5.5,0.2c0.9-0.1,1.8-0.2,2.6-0.4c2.8-0.8,5.3-1.9,7.7-3.5c0.7-0.5,1.2-1,1.6-1.7
				c0.9-1.7,2.1-3.3,2.4-5.3c0.1-0.4,0.1-0.9,0.2-1.3c0-0.1,0.1-0.3,0.1-0.4c0-0.1,0.1-0.2,0.1-0.2c0.1-0.2,0.2-0.3,0.4-0.4
				c0,0,0,0,0,0c0.1,0,0.1-0.1,0.2-0.1c0,0,0.1,0,0.1,0c0.1,0,0.2,0,0.4,0c0.3,0,0.6,0.2,0.8,0.4c0.1,0.1,0.2,0.2,0.2,0.4
				c0.1,0.2,0.1,0.3,0.1,0.6C282,233.4,280.5,236.5,277.7,238.9z"/>
			<path class="st1" d="M262.6,227.9c-0.1-0.5-0.2-0.9-0.2-1.2c-0.1-0.7-0.5-1-1-1.3c-1.6-0.7-4.5,0-5.7,1.2
				c-1.2,1.2-1.5,3.6,0.3,4.9c1.2,0.9,2.5,1.5,3.9,1.8c2.8,0.5,5.5,0.2,8.1-0.6c1.5-0.5,2.7-1.4,3.5-2.8c1-1.9,0.6-3.7-0.2-5.4
				c-0.5-1.2-1.5-2.1-2.5-2.8c-2.5-1.7-5.3-2.4-8.3-2.4c-2.3,0.1-4.6,0.4-6.8,1c-1.7,0.5-3.2,1.2-4.6,2.3c-3,2.2-3.8,5.2-3.5,8.7
				c0.2,2.1,1.2,3.7,2.7,5.1c3.1,2.9,6.9,4.6,11.1,5.1c1.8,0.2,3.7,0.5,5.5,0.2c0.9-0.1,1.8-0.2,2.6-0.4c2.8-0.8,5.3-1.9,7.7-3.5
				c0.7-0.5,1.2-1,1.6-1.7c0.9-1.7,2.1-3.3,2.4-5.3c0.1-0.4,0.1-0.9,0.2-1.3c0.1-0.8,0.6-1.2,1.4-1.2c0.7,0.1,1,0.5,1.1,1.3
				c0.2,3.8-1.2,6.9-4.1,9.3c-1.1,0.9-2.2,1.8-3.4,2.6c-2.9,2.1-6.3,3.1-9.8,3.4c-6,0.6-11.4-1-16.3-4.3c-3.6-2.3-5.5-5.7-6.1-9.9
				c-0.2-1.2-0.1-2.4,0.2-3.5c0.9-3.2,2.7-5.8,5.5-7.6c3.8-2.5,8-3.9,12.6-4c2.8-0.1,5.5,0.3,8.1,1.2c2.2,0.8,4.2,2.1,5.8,3.8
				c1.7,1.9,2.2,4,1.6,6.5c-1,3.8-3.3,6.3-6.9,7.7c-4.9,1.9-9.6,1.5-14.2-1.1c-2.5-1.4-3.6-5.5-2.5-7.9c0.6-1.3,1.4-2.2,2.7-2.7
				c2.4-1,4.8-1.1,7.2-0.3c1.2,0.4,2.1,1.1,2.7,2.2c1,1.9,0.1,4.2-2,4.6c-0.4,0.1-0.9,0-1.4-0.1c-0.2,0-0.4-0.4-0.4-0.6
				c0-0.2,0.2-0.5,0.4-0.7C261.8,228.1,262.2,228,262.6,227.9z"/>
		</g>
	</g>
	<g>
		<path class="st19" d="M114.6,151.1c-0.5,0.5-1,0.3-1.4,0.2c-2.1-0.6-4.2-0.8-6.4-0.7c-2.1,0.1-3.8,0.8-5.2,2.5
			c-0.5,0.7-1.1,1.4-1.6,2c-0.9,1.1-1.9,1-2.5-0.4c-0.6-1.5-1.4-2.7-2.7-3.6c-2.2-1.5-4.6-1.9-7.2-1.2c-1.8,0.5-3.5,1.3-4.9,2.4
			c-0.2,0.2-0.4,0.3-0.6,0.4c-0.5,0.3-1,0.4-1.5,0c-0.5-0.3-0.5-0.8-0.5-1.3c0-1.1,0.1-2.2-0.1-3.3c-0.6-3.2-2.3-5.7-5.2-7.2
			c-1.2-0.7-2.4-1.3-3.7-2c-0.2-0.1-0.3-0.2-0.5-0.3c-0.4-0.3-0.7-0.6-0.6-1.2c0.1-0.5,0.5-0.8,1-0.9c0.3-0.1,0.6-0.1,0.9-0.1
			c1.4,0,2.7,0,4.1,0c2,0,3.8-0.5,5.6-1.3c1-0.5,1.9-1.2,2.6-2.1c1.2-1.6,2.4-3.2,3.6-4.7c0,0,0.1-0.1,0.1-0.2
			c0.3-0.6,0.8-1,1.5-0.8c0.6,0.1,1,0.6,1.2,1.4c0.1,1,0.5,2,0.9,2.9c1.8,4.1,8.1,6.4,12.7,2.9c0.2-0.2,0.4-0.4,0.7-0.5
			c1.1-0.9,2.3-0.4,2.5,1c0.1,0.8,0.2,1.7,0.3,2.5c0.7,4.1,2.6,7.5,5.7,10.2c0.1,0.1,0.2,0.2,0.3,0.4c-0.3-0.1-0.6-0.2-0.9-0.3
			c-4.9-1.6-9.7-3.2-14.7-4.6c-4.2-1.2-8.6-2.2-12.8-3.2c-0.8-0.2-1.6-0.3-2.4-0.4c-0.6-0.1-1,0.1-1.3,0.7c-0.4,0.7,0.1,1.5,1,1.7
			c1.5,0.3,3.1,0.5,4.6,0.9c5.8,1.4,11.6,2.9,17.2,4.8c3.1,1,6.2,2,9.3,3C113.9,150.9,114.2,151,114.6,151.1z"/>
		<path class="st20" d="M123.2,159.5c-2.4,0-4.4-1.7-5-4.2c-0.6-2.5,0.1-4,2.3-5.3c0.2-0.1,0.4-0.2,0.7-0.4c2.3-1.3,4.5-0.6,6.2,0.8
			c1.4,1.2,2.1,3.6,1.4,5.2C128,157.6,125.3,159.5,123.2,159.5z"/>
		<path class="st20" d="M121,139.4c1.9,0,3.9,1.7,4.1,3.4c0.2,1.8-1.1,3.7-2.9,4.2c-0.4,0.1-0.7,0.1-1.1,0.2
			c-1.3,0.2-2.5-0.2-3.3-1.2c-1.9-2.3-1.2-5.6,2.2-6.5C120.4,139.4,120.8,139.4,121,139.4z"/>
		<path class="st20" d="M117,157.7c0,1-0.5,2-1.6,2.6c-1,0.6-2,0.8-3.1,0.6c-1.7-0.4-2.8-1.9-2.5-3.5c0.3-1.9,1.7-3.2,3.5-3.1
			c0.7,0.1,1.3,0.2,2,0.5C116.4,155.2,117,156.2,117,157.7z"/>
		<path class="st19" d="M129,148.3c0.8-0.2,1.6-0.3,2.3-0.5c4-0.9,8-1.7,12-2.2c1.4-0.2,2.8-0.3,4.3-0.5c0.5-0.1,0.8-0.4,0.8-0.9
			c0-0.4-0.3-0.8-0.8-0.8c-0.2,0-0.4,0-0.6,0c-4.3,0.5-8.5,1.1-12.7,2c-1.2,0.3-2.5,0.6-3.7,0.8c-0.2,0-0.4,0.1-0.8,0.1
			c0.1-0.2,0.1-0.3,0.2-0.3c0.8-0.9,1.4-2,1.7-3.1c0.2-0.9,0.4-1.9,0.6-2.9c0-0.2,0-0.5,0.1-0.7c0.1-0.7,0.7-0.9,1.3-0.6
			c0.3,0.2,0.6,0.4,0.9,0.6c1.6,1.2,4.5,1.1,6.1-0.5c0.6-0.6,1.1-1.2,1.6-1.8c0.1-0.2,0.2-0.3,0.4-0.5c0.5-0.7,1.3-0.6,1.6,0.1
			c0.2,0.4,0.3,0.8,0.5,1.1c0.2,0.4,0.4,0.9,0.7,1.3c0.7,1.1,1.7,1.7,3,1.9c2.3,0.5,4.6,0.6,6.9,0.1c0.7-0.1,1.3-0.2,2-0.4
			c0.1,0,0.3,0,0.4-0.1c0.5,0,0.9,0.2,1,0.6c0.1,0.4-0.1,0.8-0.6,1c-1.7,0.9-3.4,1.7-5.1,2.6c-0.6,0.3-1.2,0.7-1.7,1.2
			c-1.4,1.1-2.2,2.5-2.7,4.1c-0.2,0.7-0.4,1.4-0.6,2c-0.1,0.2-0.1,0.4-0.2,0.6c-0.3,0.5-0.9,0.7-1.4,0.3c0,0-0.1-0.1-0.1-0.1
			c-2.2-2.2-5-2.3-7.9-1.6c-1.5,0.4-2.7,1.3-3.6,2.4c-0.2,0.3-0.5,0.6-0.7,0.8c-0.6,0.5-1.3,0.3-1.5-0.4c-0.1-0.5-0.2-0.9-0.3-1.4
			c-0.5-1.7-1.6-3.2-2.8-4.5C129.2,148.6,129.1,148.5,129,148.3z"/>
	</g>
</g>
</svg>
